<svg id="newproject" xmlns="http://www.w3.org/2000/svg" xmlns:xlink="http://www.w3.org/1999/xlink" viewBox="430 430 560.5 560.5">
  <defs>
    <path id="a" d="M0-.003h1417.323V1417.32H0z"/>
  </defs>
  <clipPath id="b">
    <use xlink:href="#a" overflow="visible"/>
  </clipPath>
  <path clip-path="url(#b)" fill="#A8C6FA" d="M652.991 699.352H468.334c-23.824 0-43.137-19.313-43.137-43.137V471.558c0-23.824 19.313-43.138 43.137-43.138h184.657c23.824 0 43.137 19.314 43.137 43.138v184.657c0 23.824-19.313 43.137-43.137 43.137M652.991 988.897H468.334c-23.824 0-43.137-19.313-43.137-43.139V761.103c0-23.824 19.313-43.139 43.137-43.139h184.657c23.824 0 43.137 19.314 43.137 43.139v184.655c0 23.825-19.313 43.139-43.137 43.139M948.988 988.897H764.333c-23.824 0-43.139-19.313-43.139-43.139v-474.2c0-23.824 19.314-43.138 43.139-43.138h184.655c23.824 0 43.139 19.314 43.139 43.138v474.201c0 23.824-19.314 43.138-43.139 43.138"/>
</svg>
