<svg id="newteam" xmlns="http://www.w3.org/2000/svg" xmlns:xlink="http://www.w3.org/1999/xlink" viewBox="480 480 472.8 472.8">
  <defs>
    <path id="a" d="M0-.003h1417.323V1417.32H0z"/>
  </defs>
  <clipPath id="b">
    <use xlink:href="#a" overflow="visible"/>
  </clipPath>
  <path clip-path="url(#b)" fill="#A8C6FA" d="M951.426 594.877c0 22.597-18.317 40.916-40.916 40.916-22.597 0-40.916-18.319-40.916-40.916 0-22.597 18.319-40.916 40.916-40.916 22.598 0 40.916 18.32 40.916 40.916M764.893 585.706c0 62.646-50.785 113.432-113.432 113.432-62.646 0-113.431-50.786-113.431-113.432s50.785-113.432 113.431-113.432 113.432 50.786 113.432 113.432M576.446 731.715c-64.748-11.979-124.91 102.197-151.249 213.328h452.529C856.44 838.94 802.109 731.569 735.139 735.002c-45.952 2.356-117.412 4.35-158.693-3.287M883.451 653.898c-23.354-4.321-45.056 36.864-54.557 76.949h163.232c-7.68-38.271-27.277-77.001-51.434-75.763-16.574.85-42.349 1.569-57.241-1.186M922.599 768.75v50.603"/>
  <path clip-path="url(#b)" fill="none" stroke="#A8C6FA" stroke-width="10" stroke-miterlimit="10" d="M922.599 768.75v50.603"/>
  <path clip-path="url(#b)" fill="#A8C6FA" d="M947.9 794.051h-50.603"/>
  <path clip-path="url(#b)" fill="none" stroke="#A8C6FA" stroke-width="10" stroke-miterlimit="10" d="M947.9 794.051h-50.603"/>
</svg>
