<?xml version="1.0" encoding="utf-8"?>
<!-- Generator: Adobe Illustrator 25.2.0, SVG Export Plug-In . SVG Version: 6.00 Build 0)  -->
<svg version="1.1" xmlns="http://www.w3.org/2000/svg" xmlns:xlink="http://www.w3.org/1999/xlink" x="0px" y="0px"
	 viewBox="0 0 500 500" style="enable-background:new 0 0 500 500;" xml:space="preserve">
<style type="text/css">
	.st0{fill:#AFAFAF;}
	.st1{fill:#1B1B1B;}
	.st2{fill:#646464;}
	.st3{fill:#3A3939;}
	.st4{fill:#5B5B5B;}
	.st5{fill:#1D1D1D;}
	.st6{fill:#868686;}
	.st7{fill:#414141;}
	.st8{fill:#9E9B9B;}
	.st9{fill:#474747;}
	.st10{fill:#E0E0E0;}
	.st11{fill:#FFFFFF;}
	.st12{fill:#747474;}
	.st13{fill:#222222;}
</style>
<g id="Layer_1">
	
		<image style="overflow:visible;" width="2208" height="2208" xlink:href="9261F63A.jpg"  transform="matrix(0.2266 0 0 0.2266 0 0)">
	</image>
</g>
<g id="Layer_3">
	<polygon class="st0" points="0,458.7 156.5,391.5 411.3,371.3 472.7,501.7 0,500.2 	"/>
	<polygon class="st1" points="500.2,354.9 366.7,336 366,476 472.7,500 500.2,500.2 	"/>
	<polygon class="st2" points="423.3,500 429.3,494.7 450,500.2 	"/>
	<polygon class="st2" points="250.1,0 271.8,321.5 391.1,339.4 500.2,354.9 500.2,0 	"/>
	<polygon class="st3" points="230.7,0 250.1,0 256,87.3 239,87.3 	"/>
	<polygon class="st4" points="0,173.4 230.7,163.4 236.5,61.3 230.7,0 0,0 	"/>
	<polygon class="st5" points="0,173.4 168.6,166.1 168.6,371.3 0,434.3 	"/>
	<ellipse class="st6" cx="137.7" cy="282.3" rx="51" ry="69"/>
	<polygon class="st6" points="84.5,379.5 104.7,372.9 104.8,383.6 85,391.5 	"/>
	<path class="st6" d="M0,205.7v195.9c51.1-14.8,87.5-53.1,87.5-98C87.5,258.8,51.1,220.5,0,205.7z"/>
	<path class="st7" d="M0,295.3c0,0,6.2,2,7.3,3.3c-1.8,1.3,0,3.3,0,3.3s9,7.3,12.7,6.7c0.8-1,0,9.3,0,9.3s11.3,14.5,14.7,15.8
		c0.8,2.2,5.1-1.9,5.1-1.9s3.5-15.1,6.9-14.6c1.3-0.3,0-11.3,0-11.3l2.7-10.7c0,0,9-1.2,12.5-3.3c5.7,5,13.5-14.2,13.5-14.2
		s-4.5-20.1-8.7-17.1c-4.2,3-10,0-10,0s-1.2-11.1-6-10.6c-2,0.6-3.3,5-3.3,5s-0.8-9-2-12.5c5.5-3-7.7-3.8-7.7-3.8s-2.2-1,0,8
		c2.2,9-11-10.7-11-10.7s-6.8-4-12,0c-5.2,4-2.5,5.2-6,6.5C-4,232.2,0,240,0,240V295.3z"/>
	<path class="st7" d="M134.7,321.3l-15.8-2c0,0-5.5-1.9-6.5-4c1.2-2.5-3.7,1.8-3.7,1.8s-1.9-0.9-2.8-3.3c1.2-2.2-4.5,1.2-4.5,1.2
		s-6.5-8.2-4.8-9.8c0.1-1.2-5.2-5.3-5.2-5.3s2.5-3,2.2-5s15.2-10.5,15.2-10.5s0.2-2.2,0-3.7c-0.2-1.5,10.7-4.7,10.7-4.7
		s4-5.7,7.5-3.8c3.5,1.8,3.5,1.8,3.5,1.8l5.5,1.3l3.2,46H134.7z"/>
	<polygon class="st8" points="0,434.3 168.6,371.3 168.6,388 -0.6,458.7 	"/>
	<polygon class="st9" points="-0.6,150 163.3,146 168.6,166.1 0,173.4 	"/>
</g>
<g id="Layer_2">
	<path class="st1" d="M26.7,500c0,0,5.7-3.5,7.3-4c17.3-5.3,26.3-16.3,26.3-16.3s11.7-8.7,18-11.3c8-1.1,18.3-4.7,18.3-4.7
		s6.3-1.3,10.3-8c4-0.3,8-3,12.7-8.7c2.3-4,13.3-8.3,13.3-8.3s10.3-4.7,15.3-4.3c-22.3,16.3-4.3,34.3,15,65.7
		C133,500.2,26.7,500,26.7,500z"/>
	<path class="st10" d="M163.3,500.2C134,457,134.1,448.9,146,434.3c20-14.8,17.3-21.3,17.3-21.3s-16.9-30.9-19-41
		c-1.6-2.3-1.3-35-1.3-35s-2.6-9.1-10-19c1.5-11-0.5-36-0.5-36l-2.5-11.5c0,0-1.5-9.5,2.5-20.4c-1-3.6,4-5.6,4-5.6L170,202l11-22.5
		l44-20.5l41.5-3.5L313,168l39,22.5l26.5,29.5l25,27l-3,30.5L396,298l-1.5,14.5l-0.5,15.4l-5.5,12.1c0,0-13.5,69.5-24,81
		c-6.5,11-30,34-30,34s15.5,7.4,17.5,12.2c2,4.8-3.5,32.8-3.5,32.8S200.5,500.2,163.3,500.2z"/>
	<path class="st1" d="M347.5,500.2c0,0,10.9-35.7,0-37.6c27.6,15.8,47.8,29.2,72.5,37.6C396.6,503.6,347.5,500.2,347.5,500.2z"/>
	<path class="st11" d="M217.5,381.5h9c0,0,32,6.5,38,3.5c8,2,37,0,37,0H325l-27,9.5c0,0-10.5,7.5-28.5,7c-15.5,1.5-57.5-20-57.5-20
		H217.5z"/>
	<path class="st1" d="M219,269c-4.5,2.5-17,0-17,0s-4.3-6.5-3-12c5-4.5,22,0,22,0S223.5,266.5,219,269z"/>
	<path class="st1" d="M325,265c0,0,14.5-6.5,19.5,0c2.2,5.5,0,10,0,10s-13,5-16.5,2.5S325,265,325,265z"/>
	<path class="st1" d="M180.5,262.6c0,0,27-19.6,58.5,4.9c-35-21-54-2.5-54-2.5"/>
	<path class="st1" d="M307.5,273c36.5-26,56-2.9,56-2.9L357,273C357,273,343,250,307.5,273z"/>
	<path class="st1" d="M250.1,226.5c12.9-19-63.6-61-93.6,23.5c38-61,86-27.5,79-23.5C235.5,226.5,245.4,228.2,250.1,226.5z"/>
	<path class="st1" d="M301.4,231.5c-12.9-19,63.6-61,93.6,23.5c-38-61-86-27.5-79-23.5C316.1,231.5,306.1,233.2,301.4,231.5z"/>
	<path class="st12" d="M282,354c0,0,16.3-11.3,31-14c14.7-2.7,12-18.5,12-18.5s10.5,24.5,4,23.5c-11.4-6.5-20.7-5.6-21.5,6.2
		C306.7,363,282,354,282,354z"/>
	<path class="st1" d="M186,377c-2-34.5,70-29,70-29s9,8.5,19.5,10s19.6-7.8,19.6-7.8s71.9-2.5,61.4,31.3c-9,0-5.5,1.4-9,0
		c9.8-22-148.8-33.8-151.5-3.5C192.5,378.5,190,379,186,377z"/>
	<path class="st1" d="M236,336c5.5-10,20.5,0,20.5,0S241.3,331.8,236,336z"/>
	<path class="st1" d="M313,336c-7-9.5-21.5,4-21.5,4S307.5,339,313,336z"/>
	<path class="st12" d="M315.5,242.5c0,0-27,8.6-31,20.1c-2,28.4,11,46.9,11,46.9s4.5-4.5,20,3.5
		C272.5,279.5,315.5,242.5,315.5,242.5z"/>
	<path class="st13" d="M380,221.1l27,14.6l-9,57.3c0,0-4.1,22-2.9,31c-4.6,11.5-7.6,40.9-7.6,40.9s-8.6,36.8-14.2,43.1
		c-11,14.3-3,10.3-28.7,36.7c-27,27.7-47.7,38.4-62.6,42.9c-14,3.5-18.5-1.6-18.5-1.6s10.9-0.5,20.8-3.8c57-19,56.7-54.7,56.7-54.7
		s25-27,29.5-57.5c10.5-15,15-40.5,15-40.5L390,303c0,0-3-33.5-9.5-42.4C385,253,380,221.1,380,221.1z"/>
	<path class="st1" d="M143,336v-55c0,0-3-18.5,0-23.5c-4-8.3-0.2-5.1-6-12.5c-16-5-20.5-26-20.5-26s-25-31.5-19-31.5
		c5-2.5,11.5,0,11.5,0s-2.5-19,4.5-25c-7.5-7-5.5-23.5-5.5-23.5s-9.8-0.7-8-9c7-24,24-28.5,24-28.5s-3.5-30.5-1-36
		c-3-9,16-10.5,16-10.5s10.5-2,20,3.5c-13.5-12-5.5-25.5-5.5-25.5s17.5-6,21-16.5s24.2,0,24.2,0S215,39,236,45
		c-10.5-10-5-22.5-5-22.5s22-7,26.5,1.5c7.5-12,33-13,33-13s29.5,7.5,36,0c34-2.5,28.5,26,28.5,26s31.5-2,35,18
		c15,1.5,24.5,18,24.5,18s17.5-0.5,17.5,9.5c8,13.5-8.5,20.5-8.5,20.5s28,9.5,16,33c12.5-2.5,13,15,13,15s6.5,11-5,19.5
		c25-17,5,9,5,9L448,189c0,0,5,11.5-7,10.1c10,13.4-3,30.4-3,30.4s-24.5,14.9-31,9.9c-2.5,16-9,52-9,52s0.3-26.7-7-54.5
		c-12-27.5-36-26-36-26s-19.5-16-19.5-21.5c-3.5,2-7-14.5-20-7.5c-49.5-36.5-33.5-4-33.5-4s1.5,6.5-17-4.5S251.6,157,251.6,157
		s-8.6,1-12.6-3c-26.5,34.5-58.5,27.5-58.5,27.5s-1,23.3-16.5,22.6c-0.5,17.4-10.5,32.9-10.5,32.9l-4.5,18l-3,27L143,336z"/>
	<path class="st12" d="M163.3,413c0.2-11.5,27.7,53.5,100.2,73C198,468,167.8,424.4,163.3,413z"/>
</g>
</svg>
