<?xml version="1.0" encoding="utf-8"?>
<!-- Generator: Adobe Illustrator 25.2.0, SVG Export Plug-In . SVG Version: 6.00 Build 0)  -->
<svg version="1.1" id="Calque_1" xmlns="http://www.w3.org/2000/svg" xmlns:xlink="http://www.w3.org/1999/xlink" x="0px" y="0px"
	 viewBox="0 0 1417.3 1417.3" style="enable-background:new 0 0 1417.3 1417.3;" xml:space="preserve">
<style type="text/css">
	.st0{fill:#397269;}
	.st1{fill:#3D302D;}
	.st2{fill:#BA9283;}
	.st3{fill:#84655B;}
	.st4{fill:#1E1B1B;}
	.st5{fill:#DAB19A;}
	.st6{fill:#9B6E62;}
	.st7{fill:#AA8E87;}
</style>
<rect class="st0" width="1417.3" height="1417.3"/>
<ellipse class="st1" cx="905.9" cy="1039.8" rx="62.8" ry="96.4"/>
<ellipse class="st1" cx="495.7" cy="1053.4" rx="62.8" ry="96.4"/>
<path class="st2" d="M886.1,1055.9c-18.7,135.1-44.1,278-197.7,278s-111.8-150.1-149.9-281.2c-39.9-137.3,2.6-238.5,155.5-252.6
	C897.9,781.4,903.4,930.5,886.1,1055.9z"/>
<rect x="864.7" y="805.4" class="st1" width="151" height="349.1"/>
<rect x="387.7" y="591.3" class="st1" width="151" height="506.5"/>
<path class="st3" d="M538.8,942.3c-5.8,25.4,10,55.5,25.4,72.2c20.8,22.6,47.6,28,79.4,34.5c7.1,1.4,41.1,8,87.7,2.2
	c39.5-4.9,65.7-8.2,91.2-28.8c7-5.7,39.4-33.2,43.6-78.1c0.6-5.9,2.8-35.7-9.8-55.5C810.5,817.4,557.8,859.3,538.8,942.3z"/>
<path class="st4" d="M384.6,907.2c-66.8,10.2-74,63-85.1,122.9c-8.2,44.2-154.5,143.4-69.4,269.9c40.7,60.4,138.7,114.2,168.2,131.2
	c123.8,71.3,389.8,4.8,674.6-0.2c193.9-3.4,290.2,41.9,292.7-40.4c2.2-72.9-22.5-201-54.6-261.5c-2.5-4.8-6.7-8.2-11.5-9.3
	c-28.1-6.6-66.7-15.8-112.3-27.3c-83.8-21.2-185-185.6-202.1-189.6c-34.3-8-230.5,447-264,397.1
	C642.8,1183.4,462.5,895.3,384.6,907.2z"/>
<path class="st5" d="M932.6,320.1c-20.7-25.6-82.8-93.2-211.5-110.2c-128.7,17-190.8,84.7-211.5,110.2
	C402.3,452.7,413,683.5,497.2,845.3c28.2,54.3,64.8,83.9,107.9,116.3c44.3,33.4,88.4,31.4,116.1,37.2c27.7-5.8,71.8-3.9,116.1-37.2
	C1008.7,832.5,1075.9,497.2,932.6,320.1z"/>
<g>
	<path class="st6" d="M755.8,516.8c-5,5-9.4,10.3-13.2,16c-1.8,2.9-3.6,5.7-5.1,8.8c-0.8,1.5-1.4,3.1-2.1,4.6l-0.9,2.4
		c-0.3,0.8-0.6,1.6-0.9,2.4c-0.5,1.6-1.1,3.2-1.5,4.8l-0.7,2.4l-0.5,2.5c-0.7,3.3-1.1,6.7-1.3,10.1c-0.5,6.8,0,13.7,1,20.7
		c-3-6.4-4.6-13.5-4.9-20.7c-0.1-3.6,0.1-7.2,0.6-10.8l0.5-2.7l0.6-2.6c0.4-1.8,1-3.5,1.5-5.2c0.3-0.9,0.6-1.7,1-2.5
		c0.3-0.8,0.7-1.7,1-2.5l1.2-2.4l0.6-1.2l0.7-1.2l1.4-2.3l1.5-2.3c0.5-0.8,1-1.5,1.6-2.2c0.6-0.7,1.1-1.4,1.7-2.1
		C744.1,524.9,749.6,520.2,755.8,516.8z"/>
</g>
<g>
	<path class="st6" d="M661.7,535.2c4.6,1.3,8.8,3.7,12.6,6.8c3.7,3.1,7.1,6.8,9.5,11c2.5,4.2,4.2,8.9,5,13.7
		c0.8,4.8,0.7,9.7-0.6,14.3c-0.8-4.7-1.8-9.2-3.2-13.4c-1.4-4.3-3.3-8.3-5.5-12.1c-2.2-3.8-4.9-7.3-7.9-10.7
		C668.6,541.5,665.3,538.3,661.7,535.2z"/>
</g>
<rect x="361.2" y="626.7" transform="matrix(0.9864 0.1642 -0.1642 0.9864 110.5178 -63.3016)" class="st7" width="153.8" height="20"/>
<rect x="911" y="609" transform="matrix(-0.9864 0.1642 -0.1642 -0.9864 2064.0242 1067.3518)" class="st7" width="153.8" height="20"/>
<path class="st7" d="M454.4,661.9c-0.5-23.5,14.1-44.4,35.6-50.8c70.1-20.7,124.8-36.4,144.5-46.7c6.4-3.3,23.1-12.5,46.5-14.3
	c18.4-1.4,32.2,2.4,42.6,5.1c29.7,7.7,60.2,11.6,90.1,18.4c99.1,22.6,117.6,18,129.8,38.9c4.5,7.7,4.9,24.6,5.8,58.3
	c0.8,31.9,1.6,60.9-5.8,97.2c-5.6,27.4-8.2,49.8-16.3,69.7c-11.9,29.3-1,55.9-36.7,98.2c-16.9,20.1-39.1,20.3-76.6,40.5
	c-19.4,10.5-79.1,39-142.1,25.9c-65.5-13.6-145.5-33-159.7-50.8c-44.2-55.6-33.6-108-39.6-153.8
	C465.8,746.1,455.3,700.3,454.4,661.9z"/>
<path class="st1" d="M470,885c15.3,78.4,31.3,149.8,45.5,240.6c2,12.7,9.9,65.2,7.8,134.1c-1,33.6-1.5,50.3-5.5,60.3
	c-34.8,86.6-379.1,200.3-483.4,146.6c-33.4-17.2-15.9-79-8.5-115.2c9.6-47.2,35.6-80,66.3-121.3c66.3-89,84.1-154.8,92.3-173.7
	c35.2-80.5-46.1-109.7,20.9-274c36.7-89.9,4.6-152.3,51.6-267.7c9.2-22.6,33.5-75.7,82-181.8c46.4-101.5,56.5-103.3,73.2-123
	c20.1-23.7,138.3-87.5,214.1-78.8c32.1,3.7,45.6,21.1,94.8,19.4c28.7-1,45.3-7.2,61.5-9.5c41.5-5.8,82.2,17.3,142.5,56.5
	c32.8,21.3,72.3,44,105,86.2c33.4,43.2,38.2,85.4,48.4,116.5c16.6,50.3,10,45.5,32.7,132.3c10,38.3,23.1,83.2,30.3,105.3
	c9,27.6,13.5,37.7,15.9,51.4c15.1,82.9,4.8,106.2,28.1,177.7c9.7,29.8,16.1,39.6,38.8,105.4c19.6,56.7,29.4,85.2,27.5,94.4
	c-12.7,60.8-108.2,89.5-143.1,144.9c-37.9,60.2-23.9,63.8-61.1,108.2c-11.2,13.4-139.7,57.7-155.3,48.9
	c-15.1-8.5-61-30.1-58.5-133.5c0.9-38.2,82.4-129.6,80.6-210.7c0,0-1.1-49.9,0-93.1c3.3-131.3,39.1-156.7,56.6-304.4
	c7.8-65.4,8.4-171.3-38.1-253.6c-10.9-19.3-6.4-73.8-67.3-107.2c-53.5-29.3-104-14.7-160.8-14.4c-67.7,0.3-100.5-0.9-142.9,28.5
	c-50,34.7-87.2,83.6-90,135.6c-1.8,33.5,7.8,41.4,4.4,82c-4.2,51.5-23.4,85.4-32.2,105.3C437.1,620.1,425,654.4,470,885z"/>
<path class="st1" d="M787.6,440.5c0,6.6,0,13.2,0,19.8c0,0,93.3-29,120.4-18.3s41,18.3,41,18.3s-12.9-21-28.7-29
	s-14.5-12.1-43.2-10.9C848.4,421.6,787.6,440.5,787.6,440.5z"/>
<path class="st1" d="M642.8,439.2c0,7,0,14.1,0,21.1c0,0-93.3-30.9-120.4-19.5c-27.1,11.3-41,19.5-41,19.5s12.9-22.4,28.7-30.9
	c15.8-8.5,14.5-12.9,43.2-11.7S642.8,439.2,642.8,439.2z"/>
<path class="st4" d="M1411.2,1082.3"/>
<g>
	<path class="st1" d="M790,536c2.4-2.4,4.7-5,7-7.4c2.4-2.5,4.9-4.9,7.4-7.2c5.2-4.6,10.8-8.8,16.9-12.3c6.1-3.5,12.7-6.2,19.6-8.1
		c6.9-1.8,14-2.6,21.2-2.7c7.1,0,14.4,0.7,21.5,2.5c7.1,1.8,14.1,5.1,19.9,10.1c2.9,2.5,5.1,5.1,7.5,7.6c2.3,2.5,4.6,5,6.8,7.4
		c2.3,2.4,4.6,4.8,7,6.6c1.1,0.9,2.5,1.7,3.9,2.4c0.7,0.3,1.4,0.7,2.2,1l1.1,0.5l0.6,0.2l0.3,0.1l0.1,0l0.1,0c0,0,0.1,0,0,0
		c-0.1,0-0.1,0-0.2,0l0.3,0c0.9,0.3,1.9,0.6,2.9,0.8c1,0.2,2,0.4,3.1,0.6l0.1,1c-1,0.3-2.1,0.5-3.2,0.6c-1.1,0.1-2.2,0.2-3.3,0.2
		l0.2,0l-1.6-0.1c-0.5,0-0.9-0.1-1.4-0.1c-0.9-0.1-1.8-0.2-2.7-0.4c-1.8-0.4-3.6-0.9-5.5-1.7c-3.5-1.7-6.4-3.7-9.3-5.8
		c-2.8-2.1-5.5-4.4-8.1-6.6l-3.8-3.4c-1.3-1.1-2.5-2.2-3.6-3.1c-2.4-1.9-4.9-3.5-7.6-5c-2.7-1.5-5.5-2.8-8.5-3.9
		c-3-1.1-6.1-2-9.2-2.6c-3.2-0.6-6.4-1-9.7-1.2c-6.5-0.4-13.1,0-19.6,1.2c-6.4,1.2-12.7,3.3-18.8,6.1c-6,2.8-11.8,6.3-17.2,10.3
		c-5.5,4-10.4,8.6-15.7,13.1L790,536z"/>
</g>
<g>
	<path class="st1" d="M632.2,537.4c-5.4-4.5-10.5-9.3-16-13.5c-5.5-4.2-11.4-7.8-17.6-10.7c-6.2-2.9-12.6-5.1-19.2-6.3
		c-6.6-1.2-13.4-1.6-20-1.3c-3.3,0.2-6.6,0.6-9.9,1.2c-3.2,0.6-6.4,1.5-9.5,2.7c-3.1,1.1-6,2.5-8.7,4c-2.8,1.5-5.4,3.2-7.8,5.2
		c-1.2,0.9-2.4,2-3.7,3.2l-3.9,3.4c-2.7,2.3-5.4,4.6-8.3,6.8c-2.9,2.2-5.9,4.3-9.4,6c-1.9,0.8-3.7,1.4-5.6,1.8
		c-0.9,0.2-1.9,0.3-2.8,0.4c-0.5,0.1-0.9,0.1-1.4,0.1l-1.7,0.1l0.2,0c-1.1,0-2.3-0.1-3.4-0.2c-1.1-0.1-2.2-0.3-3.3-0.6l0.1-1
		c1.1-0.2,2.1-0.3,3.1-0.6c1-0.2,2-0.5,3-0.8l0.3,0c-0.1,0-0.1,0-0.2,0c-0.1,0,0,0,0,0l0.1,0l0.1,0l0.3-0.1l0.6-0.2l1.2-0.5
		c0.8-0.3,1.5-0.7,2.3-1c1.5-0.7,2.9-1.5,4-2.5c2.4-1.9,4.8-4.3,7.2-6.8c2.3-2.5,4.7-5,7-7.6c2.4-2.6,4.7-5.1,7.7-7.7
		c5.9-5.1,13.1-8.4,20.3-10.3c7.3-1.9,14.7-2.6,22-2.6c7.3,0.1,14.6,0.9,21.6,2.8c7.1,1.9,13.8,4.7,20,8.3c6.2,3.6,12,7.9,17.2,12.7
		c2.6,2.4,5.2,4.8,7.6,7.4c2.4,2.5,4.7,5.2,7.2,7.6L632.2,537.4z"/>
</g>
<path class="st3" d="M833.9,1020.6"/>
<path class="st3" d="M1605.4,867"/>
</svg>
