<?xml version="1.0" encoding="utf-8"?>
<!-- Generator: Adobe Illustrator 25.2.0, SVG Export Plug-In . SVG Version: 6.00 Build 0)  -->
<svg version="1.1" id="Layer_2" xmlns="http://www.w3.org/2000/svg" xmlns:xlink="http://www.w3.org/1999/xlink" x="0px" y="0px"
	 viewBox="0 0 500 500" style="enable-background:new 0 0 500 500;" xml:space="preserve">
<style type="text/css">
	.st0{fill:#658EC3;}
	.st1{fill:#0B0A0C;}
	.st2{fill:#7B6A60;}
	.st3{fill:#9F7A55;}
	.st4{fill:#E7E2D8;}
	.st5{fill:#FEFEFD;}
	.st6{fill:#BFB4B2;}
	.st7{fill:#AA816D;}
	.st8{fill:#DAB19A;}
	.st9{fill:#221B19;}
	.st10{fill:#1B1718;}
	.st11{fill:#A79274;}
	.st12{fill:#151116;}
	.st13{fill:#A9A8AC;}
	.st14{fill:#100C0B;}
	.st15{fill:#1B1918;}
	.st16{fill:#646C6D;}
	.st17{fill:none;}
	.st18{fill:#0C0507;}
</style>
<rect x="-0.4" y="-0.6" class="st0" width="500.4" height="500.6"/>
<polygon class="st1" points="417,243 437,249 434.5,259.7 421,261.7 "/>
<polygon class="st2" points="70.5,500 62,414.5 39.8,417.8 46.4,500 "/>
<polygon class="st3" points="27,275 43,417.8 59,415.5 43,275 "/>
<polygon class="st4" points="16,-0.6 22.5,69 8.5,69 2,0 "/>
<path class="st5" d="M296,20.5c11.2,14.7,57,75,57,75s-148.6,17.2-294,109c1.1-13.4,1-58.4,35-97.7C142.5,45,234.5,6.5,234.5,6.5
	S284.8,5.8,296,20.5z"/>
<polygon class="st6" points="39.2,249.7 22.5,69 8.5,69 23.8,259.7 "/>
<path class="st7" d="M149,500c0,0,2.5-99-50.5-111.5C8,241,136,292,136,292l13-22.5c0,0-41-29.5-40.5-71c19-43.5,119-66,119-66
	s24-21,94.5-7.5c118.4,11,93.5,119.5,93.5,119.5s23.5,24,20,31.5c6,11.5,3.5,54.5,3.5,54.5s-11,55-13.5,53c-1,13-21,59-21,59
	s-5.5,6-8.5,21.5c-6.5-5-5.5,36-5.5,36H149z"/>
<path class="st8" d="M304,393.5c0,0,48.3-59.9,46.8-76.4C349.3,300.7,376,276,376,276s31.5,9.1,23.5,77.5c34.1-25.8,0-86,0-86
	s11.5-17,40,13.5c5,41-12.5,99.5-12.5,99.5l-33.5,29L304,393.5z"/>
<path class="st1" d="M149,500c2-96.5-49-122-49-122s-94.5-122,39-81c10-1.5,10-47.3,10-47.3s3.5-16.7-13-25.7c8-9-21-12.5-21-12.5
	s-30.8,6-47.3,43c-21,16-21.2,71.5-21.2,71.5s-29.2,48.4,29,70c5,11,11.5,10.5,11.5,10.5s-9.5,22,3,51s43.5,25.5,43.5,25.5l-6.5,17
	C127,500,141,502.5,149,500z"/>
<path class="st9" d="M249.8,447.5c-40.3-9.5-91.8-55-91.8-55s-22.5-63-25.5-86.5s18.5-43.5,18.5-43.5s22,43,113,89
	c94,38,133,17.5,133,17.5s26.5-15.5,37.5-54.5c4.3-32,1.5-37,4.5-29.5c10.2,25.6,19.5,18-35,162C375.5,468.5,290.1,457,249.8,447.5z
	"/>
<path class="st10" d="M255,293c0,0,57.5-20,81-13s29,0,29,0s35,4,44,23s4.5,17,4.5,17s2.1,6.6-6,11.5c-21.5-33.5-42-35-42-35
	L349,297c0,0,14.5,1-14.8-1s-74.8,24-74.8,24s0,0-4.5,1C246,301,255,293,255,293z"/>
<path class="st11" d="M78,403c-67-28.5-73-76-73-76s-0.5-45,43-110c23-26,38-48,94-79c8.1-4,46.8-26.5,98.3-35.5
	c19.5-9,75.7-7.5,92.7-7.5c22,1.5,56.9,3.4,71,8.5c9.8,2,10.6,1,54.5,22c8,5,17.9,12.9,28.2,30.7c0,0,10.5,28.8,5.8,50.3
	c-3,13-12,33-22.5,51.5c-4.5,12.5-23,31-23,31l-6,8l-15-47h14c0,0-4.3-82.8-81-114c-75-30.5-139.5-1.5-140.5,3
	C203,136,115,211,115,211s-31.5,16.5-57,72c-9,25.5-14,48-14,48s0.5,27,8,30C60.5,385.5,74.5,382,78,403z"/>
<path class="st12" d="M334,94.5c0,0-41.5-17-84-7.5c-38,5.5-93.5,42.5-93.5,42.5s59.5-23,93.5-29C281.5,93,334,94.5,334,94.5z"/>
<path class="st13" d="M59,204c0,0,0-42,27-86.5C83,164,110.5,156,110.5,156L59,204z"/>
<path class="st14" d="M88,246.5L193.5,136c0,0,105,4.5,117.5,9.5c3,1.5,3,11.5,3,11.5l33.5,4.5c0,0-2-4.5,0-11
	c70.5,4,108,16.5,108,16.5l3,20.5l-5,7.5l5,36l-4,4l-4-1l-1.5,10l-2.5,2.5h-5l-1,3.5l-4,4l-58.5-9l-1.5-6.5l-3.5-3
	c-11.4-16.5-21.5-31-21.5-31l-0.5-12h-8.5l0.5-12l-17-1l-1,11.5h-4.5l1,21.5l-11.5-1l0.5,13l-12-0.5v10l-69-4.5l-1-8l-10-2l-1.5-12
	l-12-1.5l-3-42.5l-6.5-1.5l-93,94.5L88,246.5z"/>
<path class="st8" d="M305.5,255c0,0,37.5-12.5,58.5,0c17.6,4.3,18.5,0,18.5,0s3.5-4.5-7.5-13.5c-20-45-27.5-37-27.5-37
	s-15,6-23,25.2C316.6,244.1,305.5,255,305.5,255z"/>
<path class="st15" d="M218.5,147.5c55.5,1,89,10.5,89,10.5s6.9,30.2,6,38.5c-5,0-5,0-5,0v15h-11l-1,11.5l-63.5-5l-3.5-11l-11-3
	C218.5,204,213.5,154,218.5,147.5z"/>
<path class="st15" d="M354,164c0,0,52-1,85.5,12.5c4.5,14.5,6.5,54,6.5,54h-7v9.5l-59.5-8l-1.5-9l-11.5-3.5l-1.5-14l-11-3.5V164z"/>
<g>
	<rect x="222" y="184" class="st16" width="10" height="10.5"/>
	<polygon class="st16" points="263,206.5 263,215.5 272,217.5 272,206.5 	"/>
	<polygon class="st16" points="252,196.5 252,204.5 242.5,204.5 242.5,213.5 252.5,215.5 252.5,206.5 263,206.5 263,196.5 	"/>
	<polygon class="st16" points="252.5,186 252,186 242.5,186 242,186 242,195 252.5,195 	"/>
	<polygon class="st16" points="231.5,203 242,204.5 242,195 231.5,195 	"/>
</g>
<g>
	<polygon class="st17" points="385,207.7 385,217.5 394.8,217.5 393.5,208.8 	"/>
	<polygon class="st16" points="364.8,196.5 366.2,206.5 375.2,206.5 374,198.2 	"/>
	<polygon class="st16" points="393.5,208.8 392.2,200 383.8,198.5 383.8,207.5 385,207.7 375.2,206.5 376.8,216 385,217.5 
		385,207.7 	"/>
	<polygon class="st16" points="393.5,208.8 394.8,217.5 404,219.5 402.5,210 	"/>
	<polygon class="st16" points="386.8,227 396,228 394.8,217.5 385,217.5 	"/>
	<polygon class="st16" points="413.8,230.2 412,220.8 404,219.5 404,229 	"/>
</g>
<path class="st18" d="M316.5,268c0,0,1.6-9,13.5-5.5c19.5-1.5,19,5.5,19,5.5s-7.5,3-16.2,2C327.5,274.5,316.5,268,316.5,268z"/>
<path class="st18" d="M363,271.6c0.3-3.6,10.5-9.1,10.5-9.1s3.2,9.2,0,11.5S364.6,274.2,363,271.6z"/>
</svg>
