<?xml version="1.0" encoding="utf-8"?>
<!-- Generator: Adobe Illustrator 25.2.0, SVG Export Plug-In . SVG Version: 6.00 Build 0)  -->
<svg version="1.1" id="Calque_1" xmlns="http://www.w3.org/2000/svg" xmlns:xlink="http://www.w3.org/1999/xlink" x="0px" y="0px"
	 viewBox="0 0 1745.3 1338.7" style="enable-background:new 0 0 1745.3 1338.7;" xml:space="preserve">
<style type="text/css">
	.st0{fill:#9E005D;}
	.st1{fill:#88BAA1;}
	.st2{fill:#838BC5;}
	.st3{fill:#BA9BC9;}
	.st4{fill:#65C8D0;}
</style>
<g>
	<path class="st0" d="M432.1,369.7c23.5,14.8,47.6,28.7,72.4,41.3c24.7,12.7,50.1,24,76,33.8c51.9,19.5,106.5,32.2,161.7,34.9
		c13.8,0.7,27.6,0.9,41.4,0.6c13.8-0.3,27.6-1.1,41.7-1.5c7-0.1,14.1-0.3,21.5,0.9c3.7,0.7,7.7,1.7,11.3,4.3
		c0.9,0.7,1.8,1.3,2.5,2.3c0.4,0.4,0.8,0.9,1.1,1.3l0.9,1.5c1.2,2,1.8,4.1,2.3,6.1c0.8,4.1,0.5,8,0,11.7c-0.5,3.7-1.3,7.2-2.2,10.7
		c-1.8,6.9-4.1,13.6-6.4,20.3c-4.8,13.2-10.1,26.1-15.5,39L824.5,615c-10.3,25.3-16.1,52.3-18.5,79.5c-2.4,27.3-1.3,54.9,2,82.2
		c3.4,27.3,8.9,54.4,16,81c7.1,26.7,15.7,52.9,25.2,79c4.7,13,9.7,26,14.6,39c2.5,6.5,4.9,13,7.3,19.7c1.2,3.3,2.4,6.7,3.4,10.1
		c1.1,3.5,2.1,6.9,2.7,11.1c0.1,0.5,0.1,1.1,0.2,1.7c0,0.6,0,1.3,0,1.9l-0.1,1.2c0,0.4-0.1,0.8-0.2,1.3c-0.2,0.9-0.6,2.2-1.6,3.5
		c-0.6,0.7-1.2,1.4-2,1.9c-0.8,0.5-1.8,1-2.5,1.1c-0.7,0.2-1.7,0.3-2.2,0.3c-0.6,0-1.1-0.1-1.7-0.1c-1.8-0.4-3.1-0.9-4.1-1.4
		c-2.1-1.1-3.7-2.2-5.3-3.3c-1.6-1.1-3-2.3-4.4-3.4c-5.6-4.7-10.7-9.5-15.7-14.4c-10-9.8-19.8-19.8-29.4-29.9
		c-19.3-20.2-38.2-40.5-57.2-60.8l-28.4-30.5c-9.4-10.2-19-20.2-28.3-30.9c-18.5-21.3-35.2-44.3-48.5-69.4
		c-6.6-12.6-12.4-25.7-16.9-39.2c-4.4-13.6-7.8-27.6-9.4-41.9c-3.5-28.5-0.1-58,9.7-85c9.7-27.1,25.3-51.7,43.9-73.1
		c18.7-21.5,40.4-40,63.6-56c23.3-16,48.1-29.5,73.8-40.9c25.8-11.4,52.4-20.6,79.7-27.4c27.3-6.8,55.2-11.4,83.6-12.3
		c14.1-0.5,28.4,0.1,42.5,2c14.1,2,28.2,5.4,41.5,11.4c6.6,3,13,6.8,18.8,11.4c2.9,2.3,5.6,4.9,8.2,7.6c2.5,2.8,4.9,5.7,6.9,8.9
		c4.1,6.3,7,13.4,8.6,20.7c1.6,7.3,2,14.8,1.5,22.1c-1,14.6-5.2,28.6-10.7,41.7c-1.4,3.3-2.9,6.5-4.3,9.7c-1.5,3.1-2.9,6.2-4.3,9.4
		c-2.9,6.3-5.6,12.6-8.2,19c-21.1,51-34.7,105.1-41.2,160.1c-3.4,27.5-4.9,55.2-6,83c-0.3,7-0.6,13.9-1,20.9c-0.4,7-0.9,14-2.1,21
		c-0.6,3.5-1.3,7-2.7,10.5c-0.7,1.7-1.5,3.4-2.6,5.1c-1.1,1.6-2.7,3.1-4.6,4c-1.9,1-4,1.3-6,1.2c-2-0.1-3.8-0.5-5.6-1.1
		c-3.5-1.2-6.7-2.9-9.7-4.7c-6.1-3.7-11.6-8-17.1-12.3c-5.4-4.4-10.7-9-15.9-13.6c-10.4-9.3-20.5-18.9-30.5-28.5
		c-20-19.4-39.6-39.1-59.2-58.8c20.1,19.2,40.2,38.4,60.6,57.3c10.2,9.4,20.4,18.8,30.9,27.9c5.2,4.5,10.6,9,16,13.3
		c5.4,4.2,11,8.4,16.9,11.8c2.9,1.7,6,3.2,9.1,4.2c3.1,1,6.3,1.3,8.7,0c2.5-1.3,4.1-4,5.2-7.1c1.1-3,1.8-6.4,2.3-9.7
		c1-6.7,1.4-13.6,1.7-20.5c0.3-6.9,0.4-13.9,0.6-20.8c0.6-27.8,1.6-55.7,4.6-83.5c5.8-55.6,18.9-110.5,39.7-162.5
		c2.6-6.5,5.3-13,8.1-19.4c1.4-3.2,2.8-6.4,4.3-9.6c1.4-3.2,2.8-6.2,4.1-9.4c5.1-12.5,8.9-25.7,9.7-38.8c0.8-13.1-1.8-26.3-8.9-36.9
		c-6.9-10.8-17.9-18.6-29.9-24c-12.1-5.4-25.3-8.5-38.7-10.2c-13.4-1.7-27.1-2.1-40.7-1.6c-27.3,1.1-54.5,5.6-81.1,12.4
		c-26.6,6.8-52.6,16-77.7,27.2c-25.1,11.3-49.2,24.6-71.7,40.2c-22.4,15.7-43.4,33.5-61.2,54.1c-17.8,20.5-32.4,43.8-41.4,69.1
		c-9,25.3-12.2,52.6-8.9,79.2c1.6,13.3,4.7,26.5,8.9,39.3c4.3,12.8,9.8,25.2,16.1,37.3c12.7,24.1,28.8,46.4,46.8,67.1
		c8.9,10.3,18.5,20.4,28,30.7l28.3,30.6c18.9,20.4,37.8,40.7,57,60.8c9.6,10,19.2,20,29,29.6c4.9,4.8,9.9,9.5,15,13.8
		c1.3,1.1,2.5,2.1,3.8,3c1.2,0.9,2.5,1.8,3.5,2.3c0.5,0.3,0.9,0.3,0.8,0.4c-0.1,0-0.3-0.1-0.4,0c-0.1,0-0.6,0-0.9,0.1
		c-0.2,0.1-0.9,0.3-1.3,0.6c-0.4,0.3-0.8,0.6-1,1c-0.5,0.6-0.6,1.1-0.6,1.1c0,0.1,0,0.1,0,0.1c0,0,0-0.1,0-0.1l0-0.7l-0.1-0.9
		c-0.4-2.7-1.3-6-2.2-9.1c-1-3.2-2.1-6.4-3.2-9.7c-2.3-6.5-4.7-13-7.1-19.5c-4.9-13-9.8-26.1-14.5-39.2c-9.4-26.3-18-53-25.1-80.1
		c-7.1-27.1-12.6-54.7-15.8-82.6c-3.1-27.9-4-56.2-1.3-84.3c2.7-28.1,9-56,19.9-82.2l16.8-38.2c5.5-12.7,11-25.5,15.8-38.3
		c2.4-6.4,4.7-12.9,6.4-19.4c1.7-6.4,3.1-13.2,2.2-18.8c-0.5-2.8-1.7-4.8-3.6-6.3c-2-1.5-4.9-2.5-8-3c-6.3-1.1-13.2-1.1-20.1-1.1
		c-13.8,0.2-27.7,0.9-41.7,1c-14,0.1-28-0.2-41.9-1.2c-55.9-3.7-110.7-17.5-162.5-38c-25.9-10.3-51.2-22.1-75.7-35.3
		C479.1,399.5,455.3,385.1,432.1,369.7z"/>
</g>
<ellipse transform="matrix(0.3186 -0.9479 0.9479 0.3186 -3.9295 862.9017)" class="st1" cx="598.2" cy="434.2" rx="435.3" ry="293.1"/>
<path class="st2" d="M1452.3,1040.2c-144.4-17-144.4-17-144.4-17c-130,178.5-303.3,127.5-130,178.5c173.3,51,72.2,144.5,173.3,51
	c101.1-93.5,182.3-42.5,141.7-127.5C1452.3,1040.2,1452.3,1040.2,1452.3,1040.2"/>
<path class="st3" d="M1291.8,540.1c14.9,38.3,61.3,45.6,64,45.9c58-4.2,103.7-21.3,110.6-47.1c1.8-6.8,1.5-12.7,1.5-12.7
	c-1.5-25.5-28.9-31.2-31.7-56.9c-1.3-12.1,1.5-19.3-1-21.8c-7.3-7.1-27.7,3.5-35.6,7.6c-21.7,11.2-21.2,18.7-35,25.5
	c-29.1,14.4-52-8.8-68.3,4.6C1282.6,496.7,1285.6,524,1291.8,540.1z"/>
<path class="st4" d="M1398.3,947.7c-79.9,58.6-108-16.1-109.6-20.7c-9.2-123.6,10.9-252.9,59.4-325.3c12.8-19.2,24.5-32,24.5-32
	c50.6-55.5,70-14.7,121.4-68c24.2-25.1,37.6-47.3,43.1-48c16.1-1.9,1.4,62.5-4.2,87.3c-15.5,68.3-30.4,84.6-39.7,127.3
	c-19.6,90.1,33,81.9,11.4,145C1486.4,866.5,1431.7,923.2,1398.3,947.7z"/>
<g>
	<path d="M940.3,22.7c-27.8,0.1-55.7,1.7-83.3,5.3c-6.9,0.9-13.8,2-20.7,3c-6.9,1.1-13.7,2.4-20.5,3.6c-6.8,1.3-13.6,2.9-20.4,4.4
		c-6.8,1.5-13.5,3.3-20.2,5c-6.7,1.7-13.4,3.7-20.1,5.6c-6.7,2-13.2,4.2-19.9,6.3c-6.6,2.2-13.1,4.6-19.6,6.9
		c-6.5,2.4-12.9,5-19.4,7.6c-6.4,2.7-12.7,5.5-19.1,8.2c-6.3,2.9-12.6,5.9-18.8,8.8c-6.2,3.1-12.4,6.3-18.5,9.4l-18.2,10l3.7-5.9
		c-0.4,21.6-1.5,43.4-4.5,65c-2.7,21.7-7.8,43.2-12.8,63.9c-2.5,10.4-4.7,20.5-6.3,30.6c-1.7,10.1-2.5,20.2-2.8,30.3
		c0,5.1-0.2,10.2,0.1,15.2l0.3,7.6l0.7,7.5c0.3,5,1.3,9.9,2,14.9c0.4,2.5,1,4.9,1.5,7.3c0.5,2.4,1,4.9,1.7,7.2l1.9,7.1l2.3,7
		c0.7,2.4,1.7,4.6,2.6,6.9c0.9,2.3,1.8,4.6,2.9,6.8c1.1,2.2,2,4.5,3.1,6.7l3.4,6.5l3.7,6.4c1.2,2.1,2.7,4.2,4,6.3
		c5.4,8.3,11.5,16.3,18.1,24.3c6.5,8,13.5,15.9,20.5,24.4c7,8.5,14.1,17.5,20.5,27.7c6.4,10.2,12,21.8,15.1,34.5
		c3.2,12.6,3.9,25.9,2.6,38.4c-1.3,12.5-4.2,24.4-8.4,35.8c-8.3,22.7-20.8,42.9-35.2,60.8c-14.5,17.9-30.7,33.8-48.1,48.1
		c-17.4,14.3-35.7,27.1-55,38.5c-19.3,11.3-39.3,21.4-60.9,29.2c-21.5,7.8-44.2,13.1-67.4,14.5c-23.1,1.6-46.6-0.5-69-6.2
		c-22.4-5.7-43.6-14.9-63.1-26.5c-19.5-11.6-37.3-25.6-53.3-41.1l22.2-9.5c-1.1,32.2-0.2,64.5,3.2,96.6c3.4,32.1,9.2,64,17.3,95.4
		c8.2,31.3,18.7,62.1,31.6,91.9c1.5,3.8,3.2,7.4,4.9,11.1l5.1,11.1c3.4,7.4,7.3,14.5,10.9,21.8c3.8,7.2,7.8,14.3,11.7,21.4
		c4.1,7,8.4,13.9,12.5,20.9l-7.9-2.8c25.8-9.1,52.4-15.4,79.1-20.2c13.4-2.4,26.8-4.3,40.2-6.1l19.9-2.6l19.9-2.8
		c26.5-3.9,52.9-8.4,79.3-13.1l39.7-7.2c13.3-2.4,26.5-4.8,39.9-6.9c26.7-4.3,53.8-8,81.5-8.6c13.8-0.3,27.8,0.2,41.8,1.9
		c14,1.7,27.8,4.6,41.3,8.8c27,8.4,52.4,21.7,75.3,37.3c23.1,15.5,44.4,33.6,64.1,52.7c19.8,19,38.2,39.1,56.6,58.1
		c9.2,9.4,18.4,18.7,28,26.8c9.5,8.1,19.4,15.4,29.6,20.5l3.8,1.9c1.3,0.6,2.6,1.1,3.9,1.6c2.6,1.2,5.2,1.8,7.8,2.7
		c1.3,0.4,2.6,0.6,3.9,1c1.3,0.3,2.6,0.7,3.9,0.8l3.9,0.6c1.3,0.1,2.7,0.2,4,0.3l2,0.2c0.7,0.1,1.7,0.1,2.5,0.1l5.1,0.2l10.2,0.4
		l20,0.9c13.1,0.5,25.5,0.6,37-0.9c11.6-1.5,22.9-4.7,34.4-9c23.1-9,46.3-21.6,69.2-34.6l8.6-4.9l8.6-5.1l8.6-5.1
		c2.9-1.7,5.7-3.4,8.5-5.1c5.5-3.4,11.1-6.8,16.5-10.4l8.2-5.3l8.1-5.5c10.7-7.4,21.3-15.1,32-23.2c10.7-8,21.5-16.3,33.4-24.3
		c11.8-8,24.8-15.7,38.7-21.7c13.9-6.1,28.6-10.3,43.1-13.3l-15.1,10.3c30.7-50.1,54.6-104.2,71.2-160.5
		c8.2-28.1,14.8-56.8,19.3-85.8c0.6-3.6,1.2-7.2,1.7-10.9l1.4-10.9l1.4-10.9l1-11l1-11c0.3-3.6,0.4-7.3,0.7-11
		c0.4-7.3,0.9-14.6,1-22l0.2-11c0-1.8,0.1-3.7,0.1-5.5l-0.1-5.5l-0.5-22l-0.1-5.5l-0.4-5.5l-0.8-11l-0.7-11l-0.4-5.5
		c-0.1-1.8-0.4-3.6-0.6-5.5c-1.8-14.6-3.1-29.2-5.9-43.6l-1.8-10.9c-0.6-3.6-1.2-7.3-2-10.8l-4.8-21.5c-1.4-7.2-3.6-14.3-5.5-21.3
		l-2.9-10.6c-0.9-3.5-1.9-7.1-3.1-10.6l-6.8-21l-1.7-5.2c-0.6-1.7-1.3-3.4-1.9-5.2l-3.9-10.3l-3.9-10.3l-1.9-5.2l-2.2-5.1l-8.7-20.3
		c-0.8-1.7-1.4-3.4-2.2-5.1l-2.4-5l-4.8-9.9c-3.2-6.6-6.3-13.4-10-19.8l-10.6-19.5l-1.3-2.4l-1.4-2.4l-2.9-4.7l-5.7-9.5l-5.7-9.5
		c-1.9-3.1-4.1-6.2-6.1-9.2l-12.4-18.5l-13.2-17.9c-2.2-3-4.4-6-6.6-8.9l-7-8.7c-4.7-5.7-9.3-11.6-14.1-17.2l-14.9-16.6
		c-4.8-5.7-10.2-10.9-15.4-16.2l-7.8-8c-2.6-2.7-5.2-5.4-8-7.8l-16.4-15.2l-4.1-3.8l-4.3-3.6l-8.6-7.2
		c-11.3-9.9-23.4-18.6-35.3-27.8c-2.9-2.3-6.1-4.3-9.2-6.5l-9.3-6.4l-9.3-6.4c-3.1-2.1-6.4-4-9.5-6l-19.2-11.8
		c-6.5-3.7-13.2-7.2-19.8-10.9l-9.9-5.4l-10.1-4.9l-20.4-9.8l-20.8-8.8c-3.5-1.4-6.9-3-10.4-4.3l-10.6-3.8
		c-7.1-2.5-14.2-5.2-21.3-7.6l-21.7-6.6c-3.6-1-7.2-2.3-10.9-3.1l-11-2.7l-11-2.7l-5.5-1.4c-1.8-0.5-3.7-0.9-5.5-1.2l-22.3-4.2
		c-3.7-0.7-7.4-1.5-11.2-2l-11.2-1.5c-7.5-1-15-2.1-22.5-3l-22.6-1.8c-3.8-0.3-7.5-0.7-11.3-0.9l-11.3-0.3L940.3,22.7z M940.3,18.3
		l22.8,0.5l11.4,0.2c3.8,0.2,7.6,0.5,11.4,0.8l22.8,1.6c7.6,0.7,15.1,1.7,22.7,2.6l11.4,1.3c3.8,0.4,7.5,1.2,11.3,1.8l22.6,3.8
		c1.9,0.3,3.7,0.7,5.6,1.1l5.6,1.2l11.2,2.4l11.2,2.4c3.7,0.8,7.4,1.9,11.1,2.9l22.2,5.9c7.3,2.1,14.6,4.6,21.9,6.8l10.9,3.5
		c3.6,1.2,7.2,2.6,10.8,3.9l21.6,7.9l21.2,8.9l10.6,4.5l10.4,5c6.9,3.3,13.9,6.6,20.8,10L1292,108c3.4,1.9,6.8,3.5,10.1,5.5l9.9,5.9
		l9.9,5.9c3.3,2,6.7,3.9,9.8,6.1c12.8,8.6,25.8,16.9,38.1,26.2l9.3,6.9l4.7,3.4l4.5,3.6l18,14.6c3,2.4,5.9,5,8.8,7.6l8.7,7.7
		c5.8,5.2,11.6,10.2,17.1,15.8l16.6,16.3c5.4,5.6,10.6,11.4,15.8,17.1l7.9,8.6c2.6,2.9,5,6,7.5,8.9l14.9,18l14.1,18.7
		c2.3,3.1,4.7,6.2,6.9,9.4l6.6,9.7l6.6,9.7l3.3,4.8l1.6,2.4l1.5,2.5l12.1,20c4.2,6.6,7.7,13.6,11.4,20.4l5.6,10.3l2.8,5.2
		c0.9,1.7,1.7,3.5,2.6,5.3l10,21.2l2.5,5.3l2.3,5.4l4.5,10.8l4.5,10.9c0.7,1.8,1.5,3.6,2.2,5.4l2,5.5l7.8,22.2
		c1.4,3.7,2.5,7.4,3.6,11.2l3.3,11.3c2.2,7.5,4.6,15,6.3,22.7l5.5,22.9c1,3.8,1.6,7.7,2.4,11.5l2.2,11.6c3.2,15.4,4.9,31,7.1,46.5
		c0.2,2,0.6,3.9,0.7,5.8l0.5,5.9l1,11.7l1,11.7l0.5,5.9l0.2,5.9l0.7,23.5l0.2,5.9c0.1,2,0,3.9,0,5.9l-0.2,11.8
		c0,7.9-0.4,15.7-0.8,23.5c-0.2,3.9-0.3,7.9-0.6,11.8l-1,11.7l-1,11.7l-1.4,11.7l-1.5,11.7c-0.5,3.9-1.2,7.8-1.8,11.6
		c-4.8,31-11.7,61.8-20.7,91.9c-9,30.1-20,59.6-33.1,88.2c-13.1,28.6-28,56.3-44.7,82.8l-5.3,8.5l-9.7,1.8
		c-11.8,2.2-23.1,5.3-33.9,9.8c-10.8,4.5-21.2,10.3-31.8,17.2c-10.5,6.9-21.2,14.8-32.1,22.6c-10.9,7.9-22.2,15.9-33.7,23.6
		l-8.7,5.7l-8.8,5.5c-5.8,3.7-11.8,7.2-17.8,10.7c-3,1.8-6,3.5-8.9,5.1l-8.9,5l-8.9,5l-9,4.9c-24,13-48.4,25.9-75.5,36
		c-13.7,4.9-28.5,8.8-43.6,10.4c-15.1,1.7-29.8,1.1-43.5,0.3l-20.3-1.4l-9.9-0.7l-5-0.3l-2.6-0.2l-3-0.3c-2-0.2-4-0.4-6-0.6l-6-1.1
		c-2-0.3-3.9-0.8-5.9-1.4c-1.9-0.5-3.9-1-5.8-1.6c-3.7-1.4-7.6-2.6-11.1-4.2c-1.8-0.8-3.6-1.6-5.4-2.5l-5.1-2.7
		c-1.8-0.9-3.3-1.9-5-2.9c-1.6-1-3.3-2-4.9-3c-3.1-2.2-6.3-4.2-9.1-6.5l-4.4-3.4l-4.2-3.5c-2.9-2.3-5.4-4.7-8.1-7.1
		c-10.6-9.7-20.1-19.8-29.3-29.9c-18.4-20.2-35.4-40.6-53.7-59.5c-18.1-19-37.4-36.6-58.2-52c-2.6-1.9-5.2-3.9-7.9-5.7l-8-5.5
		c-5.4-3.4-10.8-6.9-16.4-10c-11.2-6.2-22.7-11.6-34.7-15.9c-12-4.3-24.4-7.4-37.1-9.5c-12.7-2.1-25.6-3.1-38.6-3.3
		c-13-0.2-26.2,0.4-39.4,1.4c-13.2,1-26.4,2.5-39.6,4.2c-26.5,3.4-53,7.8-79.6,11.9c-26.6,4.2-53.2,8.2-79.9,11.8l-20.1,2.6
		l-20.1,2.4c-13.3,1.6-26.4,3.5-39.5,5.7c-26.2,4.5-52,10.8-76.9,19.8l-5.1,1.8l-2.8-4.6l-12.9-21.2c-4.1-7.2-8.3-14.4-12.2-21.6
		c-3.8-7.4-7.8-14.6-11.4-22.1l-5.4-11.2c-1.8-3.7-3.7-7.4-5.3-11.3c-13.7-30.2-25.5-61.3-35-93.2c-9.5-31.8-16.8-64.4-21.9-97.4
		c-5.1-32.9-7.7-66.3-8.2-99.8l-0.4-29.4l22.6,19.9c30.7,27,67.1,47.4,105.9,55.3c19.3,4.1,39.1,4.9,58.6,2.9c9.7-1,19.5-2.7,29-5.2
		c9.5-2.5,19-5.4,28.3-9.1c18.5-7.3,36.8-16.8,54.1-27.5c17.4-10.7,34.1-22.6,49.7-35.7c15.5-13.1,30-27.2,42.5-42.6
		c12.4-15.4,22.9-32,29.5-49.5c3.3-8.7,5.6-17.7,6.7-26.4c1.1-8.8,0.8-17.2-1.1-25.4c-1.9-8.2-5.3-16.2-9.9-24.3
		c-4.7-8.1-10.6-16.1-16.9-24.4c-12.7-16.4-27.1-33.8-38.8-53.7c-1.4-2.5-2.9-4.9-4.2-7.5l-4-7.7l-3.6-7.9c-1.2-2.6-2.2-5.4-3.3-8.1
		c-4.1-10.8-7.6-22-9.7-33.3c-0.7-2.8-1.1-5.7-1.5-8.5c-0.4-2.9-0.9-5.7-1.2-8.5c-0.5-5.7-1.2-11.4-1.3-17l-0.3-8.5l0.2-8.5
		c0-5.6,0.5-11.2,0.9-16.8c1.1-11.2,2.6-22.4,5.2-33.3c2.5-10.9,5.5-21.5,8.7-31.8c6.3-20.5,12.3-40.5,16.2-61.1
		c4-20.6,6.6-41.6,8.1-62.7l0.3-4.2l3.4-1.6l19.1-9.1l19.3-8.6c6.5-2.7,13-5.4,19.6-8c6.6-2.5,13.2-5,19.8-7.4
		c6.7-2.3,13.3-4.6,20-6.9c6.7-2.1,13.4-4.3,20.1-6.3c6.8-1.9,13.5-3.9,20.3-5.6c6.8-1.7,13.6-3.5,20.4-5.1
		c6.9-1.5,13.7-3.1,20.6-4.5c6.9-1.3,13.8-2.7,20.7-3.9c6.9-1.1,13.8-2.4,20.8-3.3c7-0.9,13.9-1.9,20.8-2.7
		C884.2,20,912.3,18.2,940.3,18.3z"/>
</g>
<circle class="st2" cx="985.2" cy="121.9" r="71.3"/>
</svg>
