<?xml version="1.0" encoding="utf-8"?>
<!-- Generator: Adobe Illustrator 25.2.0, SVG Export Plug-In . SVG Version: 6.00 Build 0)  -->
<svg version="1.1" id="logo" xmlns="http://www.w3.org/2000/svg" xmlns:xlink="http://www.w3.org/1999/xlink" x="0px" y="0px"
	 viewBox="0 0 116.4 118.7" style="enable-background:new 0 0 116.4 118.7;" xml:space="preserve">
<style type="text/css">
	.st0{fill:#6E6E6D;}
	.st1{fill:#8DC2CE;}
	.st2{opacity:0.9;fill:#C8B9DC;stroke:#D9D0E8;stroke-width:1;stroke-miterlimit:9.9999;enable-background:new    ;}
	.st3{fill:none;stroke:#B1DEEF;stroke-width:0.5;stroke-miterlimit:10;}
	.st4{fill:#8DC2CE;stroke:#8DC2CE;stroke-linecap:round;stroke-miterlimit:10;}
	.st5{fill:#C9E8FB;stroke:#C9E8FB;stroke-miterlimit:10;}
	.st6{fill:#28AFCE;}
	.st7{fill:#7868AB;}
	.st8{fill:#42407A;}
</style>
<g>
	<path class="st0" d="M93.3,14v3.7c1.5,0.4,2.5,1.8,2.5,3.4c0,2-1.6,3.5-3.5,3.5S88.8,23,88.8,21c0-1.6,1.1-2.9,2.5-3.4V14h-7.7v3.7
		c1.5,0.4,2.5,1.8,2.5,3.4c0,2-1.6,3.5-3.5,3.5S79,23,79,21c0-1.6,1.1-2.9,2.5-3.4V14h-7.7v3.7c1.5,0.4,2.5,1.8,2.5,3.4
		c0,2-1.6,3.5-3.5,3.5S69.3,23,69.3,21c0-1.6,1.1-2.9,2.5-3.4V14h-7.7v3.7c1.5,0.4,2.5,1.8,2.5,3.4c0,2-1.6,3.5-3.5,3.5
		S59.6,23,59.6,21c0-1.6,1.1-2.9,2.5-3.4V14h-7.7v3.7c1.5,0.4,2.5,1.8,2.5,3.4c0,2-1.6,3.5-3.5,3.5S49.9,23,49.9,21
		c0-1.6,1.1-2.9,2.5-3.4V14h-7.7v3.7c1.5,0.4,2.5,1.8,2.5,3.4c0,2-1.6,3.5-3.5,3.5S40.1,23,40.1,21c0-1.6,1.1-2.9,2.5-3.4V14h-7.7
		v3.7c1.5,0.4,2.5,1.8,2.5,3.4c0,2-1.6,3.5-3.5,3.5S30.4,23,30.4,21c0-1.6,1.1-2.9,2.5-3.4V14h-7.7v3.7c1.5,0.4,2.5,1.8,2.5,3.4
		c0,2-1.6,3.5-3.5,3.5S20.7,23,20.7,21c0-1.6,1.1-2.9,2.5-3.4V14H14v94.2c12.6,2.6,28.5,4.8,46.9,4.8c18.6,0,34.6-2.2,47.3-4.8
		c0-31.4,0-62.8,0-94.2H93.3z"/>
	<path class="st0" d="M93.3,14l0,3.7l-0.1-0.1c0.8,0.2,1.6,0.8,2,1.5c0.5,0.7,0.7,1.6,0.6,2.5c-0.2,1.7-1.8,3.2-3.6,3.1
		c-1.8,0-3.4-1.4-3.6-3.1c-0.1-0.9,0.1-1.8,0.5-2.5c0.5-0.7,1.2-1.3,2.1-1.6l-0.1,0.2l0-3.7l0.2,0.2l-7.7,0l0.2-0.2l0,3.7l-0.2-0.2
		c0.9,0.2,1.6,0.8,2.1,1.6c0.5,0.8,0.7,1.7,0.6,2.6c-0.2,1.8-1.9,3.3-3.8,3.3c-1.8,0-3.6-1.4-3.8-3.3c-0.1-0.9,0.1-1.8,0.6-2.6
		c0.5-0.8,1.3-1.3,2.1-1.6l-0.2,0.3l0-3.7l0.3,0.3l-7.7,0l0.3-0.3l0,3.7L74,17.3c0.9,0.3,1.7,0.8,2.2,1.6s0.7,1.7,0.6,2.7
		c-0.2,1.9-2,3.4-3.8,3.3c-1.9,0-3.6-1.5-3.9-3.3c-0.1-0.9,0.1-1.9,0.6-2.7c0.5-0.8,1.3-1.4,2.2-1.6l-0.3,0.4l0-3.7l0.4,0.4l-7.7,0
		l0.4-0.4l0,3.7l-0.3-0.4c0.9,0.3,1.7,0.9,2.2,1.7s0.7,1.8,0.6,2.7c-0.2,1.9-2,3.4-3.9,3.4c-1.9,0-3.7-1.5-3.9-3.4
		c-0.1-0.9,0.1-1.9,0.6-2.7c0.5-0.8,1.3-1.4,2.2-1.6l-0.3,0.4l0-3.7l0.4,0.4l-7.7,0l0.4-0.4l0,3.7l-0.3-0.4c0.9,0.3,1.7,0.8,2.2,1.6
		c0.5,0.8,0.7,1.8,0.6,2.7c-0.2,1.9-2,3.4-3.9,3.3c-1.9,0-3.6-1.5-3.8-3.3c-0.1-0.9,0.1-1.9,0.6-2.6s1.3-1.3,2.2-1.6l-0.2,0.3l0-3.7
		l0.3,0.3l-7.7,0L45,14l0,3.7l-0.2-0.3c0.9,0.3,1.6,0.8,2.1,1.6s0.7,1.7,0.6,2.6c-0.2,1.8-1.9,3.3-3.8,3.2c-1.8,0-3.5-1.4-3.7-3.2
		c-0.1-0.9,0.1-1.8,0.6-2.6c0.5-0.8,1.2-1.3,2.1-1.6l-0.2,0.2l0-3.7l0.2,0.2l-7.7,0l0.2-0.2l0,3.7L35,17.5c0.9,0.2,1.6,0.8,2.1,1.6
		s0.7,1.7,0.5,2.5c-0.2,1.8-1.9,3.2-3.7,3.2c-1.8,0-3.4-1.4-3.6-3.2c-0.1-0.9,0.1-1.8,0.6-2.5c0.5-0.7,1.2-1.3,2.1-1.5l-0.1,0.2
		l0-3.7l0.2,0.2l-7.7,0l0.2-0.2l0,3.7l-0.1-0.2c0.9,0.2,1.6,0.8,2.1,1.5c0.5,0.7,0.7,1.7,0.6,2.5c-0.2,1.8-1.9,3.2-3.7,3.2
		c-1.8,0-3.5-1.4-3.7-3.2c-0.1-0.9,0.1-1.8,0.6-2.6c0.5-0.8,1.2-1.3,2.1-1.6l-0.2,0.2l0-3.7l0.2,0.2l-9.2,0l0.3-0.3l0.1,47.1
		l0.1,47.1l-0.4-0.4c15.5,3.2,31.2,4.8,47,4.8c7.9,0,15.8-0.4,23.6-1.2s15.6-2,23.4-3.6l-0.4,0.5l0.3-94.2l0.1,0.1L93.3,14z
		 M93.3,13.9l15-0.1h0.1V14l0.3,94.2v0.4l-0.4,0.1c-15.5,3.3-31.4,4.8-47.2,4.9c-15.9,0-31.7-1.6-47.2-4.9l-0.4-0.1v-0.4l0.1-47.1
		l0.1-47.1v-0.3h0.3l9.2,0h0.2v0.2l0,3.7v0.2l-0.2,0c-0.8,0.2-1.4,0.7-1.8,1.4c-0.4,0.7-0.6,1.5-0.5,2.2c0.2,1.6,1.7,2.9,3.3,2.8
		c1.6,0,3.1-1.2,3.3-2.8c0.1-0.8-0.1-1.6-0.5-2.3c-0.4-0.7-1.1-1.2-1.9-1.4l-0.1,0v-0.1l0-3.7v-0.2h0.2l7.7,0h0.2v0.2l0,3.7v0.1
		l-0.1,0c-0.8,0.2-1.4,0.7-1.9,1.4c-0.4,0.7-0.6,1.5-0.5,2.3c0.2,1.6,1.7,2.9,3.3,2.9c1.6,0,3.1-1.3,3.3-2.9
		c0.1-0.8-0.1-1.6-0.5-2.3c-0.4-0.7-1.1-1.2-1.9-1.4l-0.1,0v-0.2l0-3.7v-0.2H35l7.7,0h0.2v0.2l0,3.7v0.2l-0.2,0
		c-0.8,0.2-1.4,0.7-1.8,1.4s-0.6,1.5-0.5,2.2c0.2,1.6,1.7,2.8,3.2,2.8c1.6,0,3-1.2,3.2-2.8c0.1-0.8-0.1-1.6-0.5-2.2
		c-0.4-0.6-1.1-1.1-1.8-1.3l-0.2-0.1v-0.2l0-3.7v-0.3h0.3l7.7,0h0.3v0.3l0,3.7v0.2L52.5,18c-0.7,0.2-1.4,0.7-1.8,1.3
		s-0.6,1.4-0.5,2.2c0.2,1.5,1.6,2.7,3.1,2.7c1.5,0,2.9-1.2,3.1-2.7c0.1-0.7-0.1-1.5-0.5-2.2S55,18.2,54.3,18L54,17.9v-0.3l0-3.7
		v-0.4h0.4l7.7,0h0.4V14l0,3.7V18l-0.3,0.1c-0.7,0.2-1.3,0.7-1.7,1.3c-0.4,0.6-0.6,1.4-0.4,2.1c0.2,1.5,1.6,2.7,3.1,2.6
		c1.5,0,2.9-1.2,3.1-2.6c0.1-0.7-0.1-1.5-0.4-2.1s-1-1.1-1.7-1.3L63.7,18v-0.3l0-3.7v-0.4h0.4l7.7,0h0.4V14l0,3.7V18L72,18
		c-0.7,0.2-1.4,0.7-1.8,1.3c-0.4,0.6-0.6,1.4-0.5,2.1c0.2,1.5,1.6,2.7,3.1,2.7c1.5,0,2.9-1.2,3.1-2.7c0.1-0.8-0.1-1.5-0.5-2.2
		s-1.1-1.1-1.8-1.3l-0.2-0.1v-0.3l0-3.7v-0.3h0.3l7.7,0h0.3V14l0,3.7v0.2L81.7,18c-0.7,0.2-1.4,0.7-1.8,1.3s-0.6,1.4-0.5,2.2
		c0.2,1.5,1.6,2.8,3.2,2.8c1.6,0,3-1.2,3.2-2.8c0.1-0.8-0.1-1.6-0.5-2.2s-1.1-1.1-1.8-1.4l-0.2-0.1v-0.2l0-3.7v-0.2h0.2l7.7,0h0.2
		V14l0,3.7v0.2l-0.1,0c-0.8,0.2-1.4,0.7-1.9,1.4s-0.6,1.5-0.5,2.3c0.2,1.6,1.7,2.9,3.3,2.9c1.6,0,3.2-1.3,3.4-2.9
		c0.1-0.8-0.1-1.7-0.5-2.3s-1.1-1.2-1.9-1.5l-0.1,0v0L93.3,13.9z"/>
</g>
<g>
	<path class="st1" d="M92.6,13.3V17c1.5,0.4,2.5,1.8,2.5,3.4c0,2-1.6,3.5-3.5,3.5S88,22.3,88,20.4c0-1.6,1.1-2.9,2.5-3.4v-3.7h-7.7
		V17c1.5,0.4,2.5,1.8,2.5,3.4c0,2-1.6,3.5-3.5,3.5s-3.5-1.6-3.5-3.5c0-1.6,1.1-2.9,2.5-3.4v-3.7h-7.7V17c1.5,0.4,2.5,1.8,2.5,3.4
		c0,2-1.6,3.5-3.5,3.5s-3.5-1.6-3.5-3.5c0-1.6,1.1-2.9,2.5-3.4v-3.7h-7.7V17c1.5,0.4,2.5,1.8,2.5,3.4c0,2-1.6,3.5-3.5,3.5
		s-3.5-1.6-3.5-3.5c0-1.6,1.1-2.9,2.5-3.4v-3.7h-7.7V17c1.5,0.4,2.5,1.8,2.5,3.4c0,2-1.6,3.5-3.5,3.5s-3.5-1.6-3.5-3.5
		c0-1.6,1.1-2.9,2.5-3.4v-3.7h-7.7V17c1.5,0.4,2.5,1.8,2.5,3.4c0,2-1.6,3.5-3.5,3.5s-3.5-1.6-3.5-3.5c0-1.6,1.1-2.9,2.5-3.4v-3.7
		h-7.7V17c1.5,0.4,2.5,1.8,2.5,3.4c0,2-1.6,3.5-3.5,3.5s-3.5-1.6-3.5-3.5c0-1.6,1.1-2.9,2.5-3.4v-3.7h-7.7V17
		c1.5,0.4,2.5,1.8,2.5,3.4c0,2-1.6,3.5-3.5,3.5s-3.5-1.6-3.5-3.5c0-1.6,1.1-2.9,2.5-3.4v-3.7h-9.2v94.2c12.6,2.6,28.5,4.8,46.9,4.8
		c18.6,0,34.6-2.2,47.3-4.8c0-21.8,0-43.7,0-65.6c0-9.6,0-19.1,0-28.7C102.6,13.3,97.6,13.3,92.6,13.3z"/>
	<path class="st1" d="M92.6,13.4l0,3.7L92.6,17c0.8,0.2,1.6,0.8,2,1.5c0.5,0.7,0.7,1.6,0.6,2.5c-0.2,1.7-1.8,3.2-3.6,3.1
		c-1.8,0-3.4-1.4-3.6-3.1c-0.1-0.9,0.1-1.8,0.5-2.5c0.5-0.7,1.2-1.3,2.1-1.6L90.4,17l0-3.7l0.2,0.2l-7.7,0l0.2-0.2l0,3.7l-0.2-0.2
		c0.9,0.2,1.6,0.8,2.1,1.6c0.5,0.8,0.7,1.7,0.6,2.6c-0.2,1.8-1.9,3.3-3.8,3.3c-1.8,0-3.6-1.4-3.8-3.3c-0.1-0.9,0.1-1.8,0.6-2.6
		c0.5-0.8,1.3-1.3,2.1-1.6L80.5,17l0-3.7l0.3,0.3l-7.7,0l0.3-0.3l0,3.7l-0.2-0.3c0.9,0.3,1.7,0.8,2.2,1.6s0.7,1.7,0.6,2.7
		c-0.2,1.9-2,3.4-3.8,3.3c-1.9,0-3.6-1.5-3.9-3.3c-0.1-0.9,0.1-1.9,0.6-2.7c0.5-0.8,1.3-1.4,2.2-1.6L70.7,17l0-3.7l0.4,0.4l-7.7,0
		l0.4-0.4l0,3.7l-0.3-0.4c0.9,0.3,1.7,0.9,2.2,1.7s0.7,1.8,0.6,2.7c-0.2,1.9-2,3.4-3.9,3.4c-1.9,0-3.7-1.5-3.9-3.4
		c-0.1-0.9,0.1-1.9,0.6-2.7c0.5-0.8,1.3-1.4,2.2-1.6L61,17l0-3.7l0.4,0.4l-7.7,0l0.4-0.4l0,3.7l-0.3-0.4c0.9,0.3,1.7,0.8,2.2,1.6
		c0.5,0.8,0.7,1.8,0.6,2.7c-0.2,1.9-2,3.4-3.9,3.3c-1.9,0-3.6-1.5-3.8-3.3c-0.1-0.9,0.1-1.9,0.6-2.6s1.3-1.3,2.2-1.6L51.4,17l0-3.7
		l0.3,0.3l-7.7,0l0.3-0.3l0,3.7L44,16.8c0.9,0.3,1.6,0.8,2.1,1.6s0.7,1.7,0.6,2.6c-0.2,1.8-1.9,3.3-3.8,3.2c-1.8,0-3.5-1.4-3.7-3.2
		c-0.1-0.9,0.1-1.8,0.6-2.6c0.5-0.8,1.2-1.3,2.1-1.6L41.7,17l0-3.7l0.2,0.2l-7.7,0l0.2-0.2l0,3.7l-0.1-0.2c0.9,0.2,1.6,0.8,2.1,1.6
		s0.7,1.7,0.5,2.5c-0.2,1.8-1.9,3.2-3.7,3.2c-1.8,0-3.4-1.4-3.6-3.2c-0.1-0.9,0.1-1.8,0.6-2.5c0.5-0.7,1.2-1.3,2.1-1.5L32.1,17
		l0-3.7l0.2,0.2l-7.7,0l0.2-0.2l0,3.7l-0.1-0.2c0.9,0.2,1.6,0.8,2.1,1.5c0.5,0.7,0.7,1.7,0.6,2.5c-0.2,1.8-1.9,3.2-3.7,3.2
		c-1.8,0-3.5-1.4-3.7-3.2c-0.1-0.9,0.1-1.8,0.6-2.6c0.5-0.8,1.2-1.3,2.1-1.6L22.3,17l0-3.7l0.2,0.2l-9.2,0l0.3-0.3l0.1,47.1
		l0.1,47.1l-0.4-0.4c15.5,3.2,31.2,4.8,47,4.8c7.9,0,15.8-0.4,23.6-1.2s15.6-2,23.4-3.6l-0.4,0.5l0.3-94.2l0.1,0.1L92.6,13.4z
		 M92.5,13.3l15-0.1h0.1v0.1l0.3,94.2v0.4l-0.4,0.1c-15.5,3.3-31.4,4.8-47.2,4.9c-15.9,0-31.7-1.6-47.2-4.9l-0.4-0.1v-0.4l0.1-47.1
		l0.1-47.1v-0.3h0.3l9.2,0h0.2v0.2l0,3.7v0.2l-0.2,0c-0.8,0.2-1.4,0.7-1.8,1.4c-0.4,0.7-0.6,1.5-0.5,2.2c0.2,1.6,1.7,2.9,3.3,2.8
		c1.6,0,3.1-1.2,3.3-2.8c0.1-0.8-0.1-1.6-0.5-2.3c-0.4-0.7-1.1-1.2-1.9-1.4l-0.1,0V17l0-3.7v-0.2h0.2l7.7,0h0.2v0.2l0,3.7v0.1
		l-0.1,0c-0.8,0.2-1.4,0.7-1.9,1.4c-0.4,0.7-0.6,1.5-0.5,2.3c0.2,1.6,1.7,2.9,3.3,2.9c1.6,0,3.1-1.3,3.3-2.9
		c0.1-0.8-0.1-1.6-0.5-2.3c-0.4-0.7-1.1-1.2-1.9-1.4l-0.1,0V17l0-3.7v-0.2h0.2l7.7,0h0.2v0.2l0,3.7v0.2l-0.2,0
		c-0.8,0.2-1.4,0.7-1.8,1.4s-0.6,1.5-0.5,2.2c0.2,1.6,1.7,2.8,3.2,2.8c1.6,0,3-1.2,3.2-2.8c0.1-0.8-0.1-1.6-0.5-2.2
		c-0.4-0.6-1.1-1.1-1.8-1.3l-0.2-0.1V17l0-3.7V13h0.3l7.7,0H52v0.3l0,3.7v0.2l-0.2,0.1C51,17.6,50.4,18,50,18.7s-0.6,1.4-0.5,2.2
		c0.2,1.5,1.6,2.7,3.1,2.7c1.5,0,2.9-1.2,3.1-2.7c0.1-0.7-0.1-1.5-0.5-2.2s-1.1-1.1-1.8-1.3l-0.3-0.1V17l0-3.7v-0.4h0.4l7.7,0h0.4
		v0.4l0,3.7v0.3l-0.3,0.1c-0.7,0.2-1.3,0.7-1.7,1.3c-0.4,0.6-0.6,1.4-0.4,2.1c0.2,1.5,1.6,2.7,3.1,2.6c1.5,0,2.9-1.2,3.1-2.6
		c0.1-0.7-0.1-1.5-0.4-2.1s-1-1.1-1.7-1.3l-0.3-0.1V17l0-3.7v-0.4h0.4l7.7,0h0.4v0.4l0,3.7v0.3l-0.3,0.1c-0.7,0.2-1.4,0.7-1.8,1.3
		c-0.4,0.6-0.6,1.4-0.5,2.1c0.2,1.5,1.6,2.7,3.1,2.7c1.5,0,2.9-1.2,3.1-2.7c0.1-0.8-0.1-1.5-0.5-2.2s-1.1-1.1-1.8-1.3l-0.2-0.1V17
		l0-3.7V13h0.3l7.7,0h0.3v0.3l0,3.7v0.2l-0.2,0.1c-0.7,0.2-1.4,0.7-1.8,1.3s-0.6,1.4-0.5,2.2c0.2,1.5,1.6,2.8,3.2,2.8
		c1.6,0,3-1.2,3.2-2.8c0.1-0.8-0.1-1.6-0.5-2.2s-1.1-1.1-1.8-1.4l-0.2-0.1V17l0-3.7v-0.2h0.2l7.7,0h0.2v0.2l0,3.7v0.2l-0.1,0
		c-0.8,0.2-1.4,0.7-1.9,1.4s-0.6,1.5-0.5,2.3c0.2,1.6,1.7,2.9,3.3,2.9c1.6,0,3.2-1.3,3.4-2.9c0.1-0.8-0.1-1.7-0.5-2.3
		s-1.1-1.2-1.9-1.5l-0.1,0v0L92.5,13.3z"/>
</g>
<rect x="0.1" y="18.7" transform="matrix(0.7071 -0.7071 0.7071 0.7071 -9.9306 22.7902)" class="st2" width="44.9" height="9.4"/>
<line class="st3" x1="25.8" y1="36.2" x2="95" y2="36.2"/>
<line class="st3" x1="25.8" y1="44.8" x2="95" y2="44.8"/>
<line class="st3" x1="25.8" y1="53.3" x2="95" y2="53.3"/>
<line class="st3" x1="25.8" y1="61.9" x2="95" y2="61.9"/>
<line class="st3" x1="25.8" y1="70.5" x2="95" y2="70.5"/>
<line class="st3" x1="25.8" y1="79.1" x2="95" y2="79.1"/>
<line class="st3" x1="25.8" y1="87.7" x2="61.4" y2="87.7"/>
<line class="st3" x1="25.8" y1="96.3" x2="61.4" y2="96.3"/>
<path class="st4" d="M134.7,66.4"/>
<circle class="st5" cx="80.3" cy="91.7" r="6"/>
<g>
	<polygon points="80.1,91.7 80.5,86.9 80.9,91.7 	"/>
</g>
<g>
	<polygon points="80.8,91.4 82.4,93.5 80.2,91.9 	"/>
</g>
<circle cx="80.5" cy="91.7" r="0.2"/>
<path class="st6" d="M31.9,96.3h12.4V67.6c-4,1.6-8.1,2.8-12.4,3.6V96.3z"/>
<path class="st7" d="M52,96.2h12.4V56.7c-3.8,3.1-8,5.8-12.4,8.1V96.2z"/>
<path class="st8" d="M86.3,84.5L86.1,34h-0.2c-3.2,6.2-7.4,11.8-12.2,16.7V85C76.6,80.6,83.1,80.2,86.3,84.5z"/>
</svg>
