<?xml version="1.0" encoding="utf-8"?>
<!-- Generator: Adobe Illustrator 25.1.0, SVG Export Plug-In . SVG Version: 6.00 Build 0)  -->
<svg version="1.1" id="logo" xmlns="http://www.w3.org/2000/svg" xmlns:xlink="http://www.w3.org/1999/xlink" 
	 viewBox="110 30 110 110"  style="enable-background:new 0 0 318.55 201.6;" xml:space="preserve">
<style type="text/css">
	.st0{fill:#6E6E6D;}
	.st1{fill:#8DC2CE;}
	.st2{opacity:0.9;fill:#C8B9DC;stroke:#D9D0E8;stroke-miterlimit:10;}
	.st3{fill:none;stroke:#B1DEEF;stroke-width:0.5;stroke-miterlimit:10;}
	.st4{fill:#6E6E6D;stroke:#6E6E6D;stroke-linecap:round;stroke-miterlimit:10;}
	.st5{fill:#C9E8FB;stroke:#C9E8FB;stroke-miterlimit:10;}
	.st6{fill:#28AFCE;}
	.st7{fill:#7868AB;}
	.st8{fill:#42407A;}
</style>
<g>
	<path class="st0" d="M198.61,40.04v3.7c1.46,0.43,2.53,1.77,2.53,3.37c0,1.95-1.58,3.53-3.53,3.53s-3.53-1.58-3.53-3.53
		c0-1.6,1.07-2.93,2.53-3.37v-3.7h-7.73v3.7c1.46,0.43,2.53,1.77,2.53,3.37c0,1.95-1.58,3.53-3.53,3.53s-3.53-1.58-3.53-3.53
		c0-1.6,1.07-2.93,2.53-3.37v-3.7h-7.73v3.7c1.46,0.43,2.53,1.77,2.53,3.37c0,1.95-1.58,3.53-3.53,3.53s-3.53-1.58-3.53-3.53
		c0-1.6,1.07-2.93,2.53-3.37v-3.7h-7.73v3.7c1.46,0.43,2.53,1.77,2.53,3.37c0,1.95-1.58,3.53-3.53,3.53s-3.53-1.58-3.53-3.53
		c0-1.6,1.07-2.93,2.53-3.37v-3.7h-7.73v3.7c1.46,0.43,2.53,1.77,2.53,3.37c0,1.95-1.58,3.53-3.53,3.53s-3.53-1.58-3.53-3.53
		c0-1.6,1.07-2.93,2.53-3.37v-3.7h-7.73v3.7c1.46,0.43,2.53,1.77,2.53,3.37c0,1.95-1.58,3.53-3.53,3.53s-3.53-1.58-3.53-3.53
		c0-1.6,1.07-2.93,2.53-3.37v-3.7h-7.73v3.7c1.46,0.43,2.53,1.77,2.53,3.37c0,1.95-1.58,3.53-3.53,3.53s-3.53-1.58-3.53-3.53
		c0-1.6,1.07-2.93,2.53-3.37v-3.7h-7.73v3.7c1.46,0.43,2.53,1.77,2.53,3.37c0,1.95-1.58,3.53-3.53,3.53c-1.95,0-3.53-1.58-3.53-3.53
		c0-1.6,1.07-2.93,2.53-3.37v-3.7h-9.17v94.23c12.61,2.62,28.51,4.82,46.91,4.84c18.59,0.02,34.63-2.2,47.33-4.84
		c0-31.41,0-62.82,0-94.23H198.61z"/>
	<path class="st0" d="M198.65,40.07l0.04,3.66l-0.05-0.07c0.82,0.24,1.55,0.78,2.03,1.49c0.47,0.72,0.67,1.61,0.55,2.47
		c-0.2,1.74-1.83,3.16-3.59,3.14c-1.76,0.04-3.43-1.36-3.65-3.13c-0.14-0.87,0.05-1.78,0.53-2.53c0.48-0.74,1.22-1.31,2.07-1.56
		l-0.14,0.19l-0.02-3.7l0.22,0.22l-7.73,0.03l0.25-0.25l0.01,3.7l-0.19-0.25c0.86,0.25,1.63,0.82,2.12,1.58
		c0.49,0.76,0.7,1.7,0.56,2.59c-0.21,1.82-1.92,3.29-3.76,3.26c-1.83,0.03-3.56-1.43-3.78-3.26c-0.14-0.9,0.06-1.84,0.56-2.61
		c0.5-0.76,1.27-1.34,2.14-1.6l-0.22,0.3l-0.01-3.7l0.32,0.32l-7.73,0.02l0.34-0.34l0.01,3.7l-0.25-0.33
		c0.88,0.26,1.67,0.84,2.17,1.61c0.5,0.77,0.71,1.74,0.58,2.65c-0.22,1.86-1.97,3.36-3.84,3.34c-1.87,0.04-3.64-1.46-3.87-3.33
		c-0.14-0.92,0.06-1.89,0.57-2.67c0.51-0.78,1.29-1.37,2.19-1.64l-0.28,0.38l-0.01-3.7l0.4,0.4l-7.73,0.02l0.42-0.42l0.01,3.7
		l-0.31-0.42c0.9,0.27,1.7,0.86,2.22,1.65c0.52,0.79,0.73,1.77,0.59,2.71c-0.22,1.91-2.02,3.43-3.93,3.4
		c-1.91,0.03-3.69-1.5-3.91-3.4c-0.14-0.93,0.07-1.91,0.59-2.7c0.51-0.79,1.31-1.38,2.21-1.64l-0.3,0.4l0.01-3.7l0.41,0.41
		l-7.73-0.02l0.39-0.39l-0.01,3.7l-0.27-0.36c0.89,0.27,1.67,0.85,2.18,1.63c0.5,0.78,0.71,1.75,0.57,2.66
		c-0.23,1.87-1.98,3.36-3.85,3.32c-1.87,0.03-3.61-1.47-3.83-3.32c-0.14-0.91,0.07-1.87,0.57-2.64c0.5-0.77,1.28-1.35,2.16-1.61
		l-0.24,0.32l0.01-3.7l0.32,0.32l-7.73-0.02l0.3-0.3l-0.01,3.7l-0.21-0.28c0.87,0.26,1.64,0.84,2.13,1.6
		c0.49,0.76,0.69,1.71,0.55,2.6c-0.22,1.83-1.94,3.28-3.76,3.24c-1.82,0.02-3.52-1.43-3.74-3.25c-0.13-0.89,0.07-1.82,0.56-2.57
		c0.49-0.75,1.25-1.32,2.11-1.57l-0.17,0.23l0.01-3.7l0.23,0.23l-7.73-0.02l0.21-0.21l-0.01,3.7l-0.14-0.19
		c0.85,0.25,1.6,0.82,2.08,1.56c0.48,0.74,0.67,1.66,0.54,2.53c-0.22,1.78-1.89,3.2-3.67,3.16c-1.78,0.02-3.43-1.4-3.64-3.17
		c-0.13-0.87,0.07-1.77,0.55-2.51c0.48-0.73,1.22-1.29,2.05-1.54l-0.11,0.15l-0.01-3.7l0.16,0.16l-7.73,0.02l0.18-0.18l0.01,3.7
		l-0.13-0.18c0.85,0.25,1.6,0.81,2.08,1.55c0.48,0.74,0.68,1.66,0.55,2.54c-0.21,1.79-1.89,3.22-3.68,3.2
		c-1.8,0.03-3.48-1.4-3.7-3.19c-0.14-0.88,0.06-1.81,0.55-2.56c0.49-0.75,1.24-1.32,2.1-1.57l-0.16,0.22l-0.01-3.7l0.24,0.24
		l-9.17,0.02l0.26-0.26l0.14,47.12l0.07,47.12l-0.37-0.45c15.46,3.2,31.24,4.81,47.02,4.81c7.89-0.01,15.78-0.42,23.63-1.22
		c7.85-0.8,15.65-2.04,23.39-3.6l-0.38,0.47l0.34-94.23l0.14,0.14L198.65,40.07z M198.58,40l15.02-0.1l0.14,0l0,0.14l0.34,94.23
		l0,0.39l-0.38,0.08c-15.51,3.26-31.37,4.84-47.21,4.85c-15.85-0.01-31.69-1.64-47.21-4.87l-0.37-0.08l0-0.38l0.07-47.12l0.14-47.12
		l0-0.26l0.26,0l9.17,0.02l0.24,0l0,0.24l-0.01,3.7l0,0.17l-0.16,0.05c-0.75,0.22-1.42,0.72-1.85,1.37
		c-0.43,0.66-0.6,1.47-0.49,2.25c0.19,1.59,1.67,2.86,3.27,2.84c1.59,0.03,3.1-1.24,3.29-2.84c0.12-0.78-0.05-1.6-0.48-2.27
		c-0.43-0.67-1.1-1.17-1.86-1.4l-0.13-0.04l0-0.14l0.01-3.7l0-0.18l0.18,0l7.73,0.02l0.16,0l0,0.16l-0.01,3.7l0,0.12l-0.11,0.03
		c-0.77,0.23-1.45,0.73-1.89,1.41c-0.43,0.68-0.61,1.51-0.49,2.3c0.2,1.61,1.72,2.9,3.33,2.87c1.61,0.02,3.12-1.27,3.3-2.87
		c0.12-0.79-0.06-1.61-0.5-2.27c-0.43-0.66-1.11-1.16-1.87-1.39l-0.14-0.04l0-0.15l-0.01-3.7l0-0.21l0.21,0l7.73-0.02l0.23,0l0,0.23
		l0.01,3.7l0,0.18l-0.17,0.05c-0.75,0.23-1.41,0.72-1.83,1.38c-0.42,0.66-0.59,1.46-0.47,2.23c0.19,1.57,1.67,2.82,3.24,2.79
		c1.57,0.02,3.03-1.24,3.21-2.79c0.11-0.76-0.06-1.56-0.48-2.21c-0.42-0.64-1.08-1.13-1.82-1.35l-0.21-0.06l0-0.22l-0.01-3.7l0-0.3
		l0.3,0l7.73-0.02l0.32,0l0,0.32l0.01,3.7l0,0.25l-0.24,0.07c-0.73,0.22-1.37,0.7-1.78,1.34c-0.41,0.64-0.58,1.42-0.46,2.17
		c0.19,1.52,1.62,2.74,3.15,2.71c1.52,0.02,2.95-1.2,3.12-2.71c0.11-0.74-0.06-1.52-0.47-2.15c-0.41-0.63-1.05-1.1-1.77-1.31
		l-0.27-0.08l0-0.28l-0.01-3.7l0-0.39l0.39,0l7.73-0.02l0.41,0l0,0.41l0.01,3.7l0,0.31l-0.3,0.09c-0.71,0.21-1.34,0.68-1.74,1.3
		c-0.4,0.62-0.56,1.38-0.45,2.11c0.18,1.48,1.58,2.67,3.06,2.64c1.48,0.02,2.86-1.17,3.05-2.64c0.11-0.73-0.05-1.48-0.45-2.1
		c-0.4-0.62-1.02-1.08-1.73-1.3L169,44.06l0-0.32l0.01-3.7l0-0.43l0.42,0l7.73,0.02l0.41,0l0,0.4l-0.01,3.7l0,0.3l-0.28,0.08
		c-0.71,0.21-1.35,0.68-1.76,1.3c-0.41,0.62-0.57,1.4-0.46,2.14c0.17,1.51,1.59,2.72,3.11,2.7c1.52,0.03,2.95-1.18,3.13-2.7
		c0.12-0.75-0.05-1.53-0.46-2.16c-0.41-0.63-1.05-1.11-1.78-1.33l-0.25-0.07l0-0.26l0.01-3.7l0-0.34l0.34,0l7.73,0.02l0.32,0l0,0.32
		l-0.01,3.7l0,0.23l-0.22,0.07c-0.73,0.22-1.39,0.7-1.81,1.34c-0.42,0.64-0.59,1.44-0.48,2.2c0.18,1.55,1.63,2.8,3.19,2.78
		c1.56,0.03,3.03-1.21,3.22-2.77c0.12-0.77-0.05-1.57-0.47-2.22c-0.42-0.65-1.08-1.14-1.82-1.37l-0.19-0.06l0-0.19l0.01-3.7l0-0.25
		l0.25,0l7.73,0.03l0.22,0l0,0.22l-0.02,3.7l0,0.15l-0.14,0.04c-0.76,0.22-1.44,0.72-1.88,1.38c-0.44,0.66-0.62,1.49-0.51,2.28
		c0.18,1.61,1.69,2.92,3.32,2.9c1.63,0.04,3.17-1.26,3.38-2.9c0.13-0.8-0.05-1.65-0.49-2.34c-0.44-0.69-1.13-1.21-1.92-1.45
		l-0.05-0.02l0-0.05L198.58,40z"/>
</g>
<g>
	<path class="st1" d="M197.87,39.4v3.7c1.46,0.43,2.53,1.77,2.53,3.37c0,1.95-1.58,3.53-3.53,3.53s-3.53-1.58-3.53-3.53
		c0-1.6,1.07-2.93,2.53-3.37v-3.7h-7.73v3.7c1.46,0.43,2.53,1.77,2.53,3.37c0,1.95-1.58,3.53-3.53,3.53s-3.53-1.58-3.53-3.53
		c0-1.6,1.07-2.93,2.53-3.37v-3.7h-7.73v3.7c1.46,0.43,2.53,1.77,2.53,3.37c0,1.95-1.58,3.53-3.53,3.53s-3.53-1.58-3.53-3.53
		c0-1.6,1.07-2.93,2.53-3.37v-3.7h-7.73v3.7c1.46,0.43,2.53,1.77,2.53,3.37c0,1.95-1.58,3.53-3.53,3.53s-3.53-1.58-3.53-3.53
		c0-1.6,1.07-2.93,2.53-3.37v-3.7h-7.73v3.7c1.46,0.43,2.53,1.77,2.53,3.37c0,1.95-1.58,3.53-3.53,3.53s-3.53-1.58-3.53-3.53
		c0-1.6,1.07-2.93,2.53-3.37v-3.7h-7.73v3.7c1.46,0.43,2.53,1.77,2.53,3.37c0,1.95-1.58,3.53-3.53,3.53s-3.53-1.58-3.53-3.53
		c0-1.6,1.07-2.93,2.53-3.37v-3.7h-7.73v3.7c1.46,0.43,2.53,1.77,2.53,3.37c0,1.95-1.58,3.53-3.53,3.53s-3.53-1.58-3.53-3.53
		c0-1.6,1.07-2.93,2.53-3.37v-3.7h-7.73v3.7c1.46,0.43,2.53,1.77,2.53,3.37c0,1.95-1.58,3.53-3.53,3.53s-3.53-1.58-3.53-3.53
		c0-1.6,1.07-2.93,2.53-3.37v-3.7h-9.17v94.23c12.61,2.62,28.51,4.82,46.91,4.84c18.59,0.02,34.63-2.2,47.33-4.84
		c0-21.85,0-43.71,0-65.56c0-9.56,0-19.11,0-28.67C207.86,39.4,202.86,39.4,197.87,39.4z"/>
	<path class="st1" d="M197.9,39.44l0.04,3.66l-0.05-0.07c0.82,0.24,1.55,0.78,2.03,1.49c0.47,0.72,0.67,1.61,0.55,2.47
		c-0.2,1.74-1.83,3.16-3.59,3.14c-1.76,0.04-3.43-1.36-3.65-3.13c-0.14-0.87,0.05-1.78,0.53-2.53c0.48-0.74,1.22-1.31,2.07-1.56
		l-0.14,0.19l-0.02-3.7l0.22,0.22l-7.73,0.03l0.25-0.25l0.01,3.7l-0.19-0.25c0.86,0.25,1.63,0.82,2.12,1.58
		c0.49,0.76,0.7,1.7,0.56,2.59c-0.21,1.82-1.92,3.29-3.76,3.26c-1.83,0.03-3.56-1.43-3.78-3.26c-0.14-0.9,0.06-1.84,0.56-2.61
		c0.5-0.76,1.27-1.34,2.14-1.6l-0.22,0.3l-0.01-3.7l0.32,0.32l-7.73,0.02l0.34-0.34l0.01,3.7l-0.25-0.33
		c0.88,0.26,1.67,0.84,2.17,1.61c0.5,0.77,0.71,1.74,0.58,2.65c-0.22,1.86-1.97,3.36-3.84,3.34c-1.87,0.04-3.64-1.46-3.87-3.33
		c-0.14-0.92,0.06-1.89,0.57-2.67c0.51-0.78,1.29-1.37,2.19-1.64l-0.28,0.38l-0.01-3.7l0.4,0.4l-7.73,0.02l0.42-0.42l0.01,3.7
		l-0.31-0.42c0.9,0.27,1.7,0.86,2.22,1.65c0.52,0.79,0.73,1.77,0.59,2.71c-0.22,1.91-2.02,3.43-3.93,3.4
		c-1.91,0.03-3.69-1.5-3.91-3.4c-0.14-0.93,0.07-1.91,0.59-2.7c0.51-0.79,1.31-1.38,2.21-1.64l-0.3,0.4l0.01-3.7l0.41,0.41
		l-7.73-0.02l0.39-0.39l-0.01,3.7l-0.27-0.36c0.89,0.27,1.67,0.85,2.18,1.63c0.5,0.78,0.71,1.75,0.57,2.66
		c-0.23,1.87-1.98,3.36-3.85,3.32c-1.87,0.03-3.61-1.47-3.83-3.32c-0.14-0.91,0.07-1.87,0.57-2.64c0.5-0.77,1.28-1.35,2.16-1.61
		l-0.24,0.32l0.01-3.7l0.32,0.32l-7.73-0.02l0.3-0.3l-0.01,3.7l-0.21-0.28c0.87,0.26,1.64,0.84,2.13,1.6
		c0.49,0.76,0.69,1.71,0.55,2.6c-0.22,1.83-1.94,3.28-3.76,3.24c-1.82,0.02-3.52-1.43-3.74-3.25c-0.13-0.89,0.07-1.82,0.56-2.57
		c0.49-0.75,1.25-1.32,2.11-1.57L147,43.1l0.01-3.7l0.23,0.23l-7.73-0.02l0.21-0.21l-0.01,3.7l-0.14-0.19
		c0.85,0.25,1.6,0.82,2.08,1.56c0.48,0.74,0.67,1.66,0.54,2.53c-0.22,1.78-1.89,3.2-3.67,3.16c-1.78,0.02-3.43-1.4-3.64-3.17
		c-0.13-0.87,0.07-1.77,0.55-2.51c0.48-0.73,1.22-1.29,2.05-1.54l-0.11,0.15l-0.01-3.7l0.16,0.16l-7.73,0.02l0.18-0.18l0.01,3.7
		l-0.13-0.18c0.85,0.25,1.6,0.81,2.08,1.55c0.48,0.74,0.68,1.66,0.55,2.54c-0.21,1.79-1.89,3.22-3.68,3.2
		c-1.8,0.03-3.48-1.4-3.7-3.2c-0.14-0.88,0.06-1.81,0.55-2.56c0.49-0.75,1.24-1.32,2.1-1.57l-0.16,0.22l-0.01-3.7l0.24,0.24
		l-9.17,0.02l0.26-0.26l0.14,47.12l0.07,47.12l-0.37-0.45c15.46,3.2,31.24,4.81,47.02,4.81c7.89-0.01,15.78-0.42,23.63-1.22
		c7.85-0.8,15.65-2.04,23.39-3.6l-0.38,0.47l0.34-94.23l0.14,0.14L197.9,39.44z M197.83,39.37l15.02-0.1l0.14,0l0,0.14l0.34,94.23
		l0,0.39l-0.38,0.08c-15.51,3.26-31.37,4.84-47.21,4.85c-15.85-0.01-31.69-1.64-47.21-4.87l-0.37-0.08l0-0.38l0.07-47.12l0.14-47.12
		l0-0.26l0.26,0l9.17,0.02l0.24,0l0,0.24l-0.01,3.7l0,0.17l-0.16,0.05c-0.75,0.22-1.42,0.72-1.85,1.37
		c-0.43,0.66-0.6,1.47-0.49,2.25c0.19,1.59,1.67,2.86,3.27,2.84c1.59,0.03,3.1-1.24,3.29-2.84c0.12-0.78-0.05-1.6-0.48-2.27
		c-0.43-0.67-1.1-1.17-1.86-1.4l-0.13-0.04l0-0.14l0.01-3.7l0-0.18l0.18,0l7.73,0.02l0.16,0l0,0.16l-0.01,3.7l0,0.12l-0.11,0.03
		c-0.77,0.23-1.45,0.73-1.89,1.41c-0.43,0.68-0.61,1.51-0.49,2.3c0.2,1.61,1.72,2.9,3.33,2.87c1.61,0.02,3.12-1.27,3.3-2.87
		c0.12-0.79-0.06-1.61-0.5-2.27c-0.43-0.66-1.11-1.16-1.87-1.39l-0.14-0.04l0-0.15l-0.01-3.7l0-0.21l0.21,0l7.73-0.02l0.23,0l0,0.23
		l0.01,3.7l0,0.18l-0.17,0.05c-0.75,0.23-1.41,0.72-1.83,1.38c-0.42,0.66-0.59,1.46-0.47,2.23c0.19,1.57,1.67,2.82,3.24,2.79
		c1.57,0.02,3.03-1.24,3.21-2.79c0.11-0.76-0.06-1.56-0.48-2.21c-0.42-0.64-1.08-1.13-1.82-1.35l-0.21-0.06l0-0.22l-0.01-3.7l0-0.3
		l0.3,0l7.73-0.02l0.32,0l0,0.32l0.01,3.7l0,0.25l-0.24,0.07c-0.73,0.22-1.37,0.7-1.78,1.34c-0.41,0.64-0.58,1.42-0.46,2.17
		c0.19,1.52,1.62,2.74,3.15,2.71c1.52,0.02,2.95-1.2,3.12-2.71c0.11-0.74-0.06-1.52-0.47-2.15c-0.41-0.63-1.05-1.1-1.77-1.31
		l-0.27-0.08l0-0.28l-0.01-3.7l0-0.39l0.39,0l7.73-0.02l0.41,0l0,0.41l0.01,3.7l0,0.31l-0.3,0.09c-0.71,0.21-1.34,0.68-1.74,1.3
		c-0.4,0.62-0.56,1.38-0.45,2.11c0.18,1.48,1.58,2.67,3.06,2.64c1.48,0.02,2.86-1.17,3.05-2.64c0.11-0.73-0.05-1.48-0.45-2.1
		c-0.4-0.62-1.02-1.08-1.73-1.3l-0.31-0.09l0-0.32l0.01-3.7l0-0.43l0.42,0l7.73,0.02l0.41,0l0,0.4l-0.01,3.7l0,0.3l-0.28,0.08
		c-0.71,0.21-1.35,0.68-1.76,1.3c-0.41,0.62-0.57,1.4-0.46,2.14c0.17,1.51,1.59,2.72,3.11,2.7c1.52,0.03,2.95-1.18,3.13-2.7
		c0.12-0.75-0.05-1.53-0.46-2.16c-0.41-0.63-1.05-1.11-1.78-1.33l-0.25-0.07l0-0.26l0.01-3.7l0-0.34l0.34,0l7.73,0.02l0.32,0l0,0.32
		l-0.01,3.7l0,0.23l-0.22,0.07c-0.73,0.22-1.39,0.7-1.81,1.34c-0.42,0.64-0.59,1.44-0.48,2.2c0.18,1.55,1.63,2.8,3.19,2.78
		c1.56,0.03,3.03-1.21,3.22-2.77c0.12-0.77-0.05-1.57-0.47-2.22c-0.42-0.65-1.08-1.14-1.82-1.37l-0.19-0.06l0-0.19l0.01-3.7l0-0.25
		l0.25,0l7.73,0.03l0.22,0l0,0.22l-0.02,3.7l0,0.15l-0.14,0.04c-0.76,0.22-1.44,0.72-1.88,1.38c-0.44,0.66-0.62,1.49-0.51,2.28
		c0.18,1.61,1.69,2.92,3.32,2.91c1.63,0.04,3.17-1.26,3.38-2.9c0.13-0.8-0.05-1.65-0.49-2.34c-0.44-0.69-1.13-1.21-1.92-1.45
		l-0.05-0.02l0-0.05L197.83,39.37z"/>
</g>
<rect x="105.38" y="44.73" transform="matrix(0.7071 -0.7071 0.7071 0.7071 2.4781 104.8917)" class="st2" width="44.95" height="9.45"/>
<line class="st3" x1="131.12" y1="62.25" x2="200.35" y2="62.25"/>
<line class="st3" x1="131.12" y1="70.84" x2="200.35" y2="70.84"/>
<line class="st3" x1="131.12" y1="79.42" x2="200.35" y2="79.42"/>
<line class="st3" x1="131.12" y1="88" x2="200.35" y2="88"/>
<line class="st3" x1="131.12" y1="96.58" x2="200.35" y2="96.58"/>
<line class="st3" x1="131.12" y1="105.16" x2="200.35" y2="105.16"/>
<line class="st3" x1="131.12" y1="113.75" x2="166.74" y2="113.75"/>
<line class="st3" x1="131.12" y1="122.33" x2="166.74" y2="122.33"/>
<path class="st4" d="M240,92.51"/>
<circle class="st5" cx="185.6" cy="117.76" r="5.96"/>
<g>
	<polygon points="185.43,117.76 185.81,112.96 186.18,117.76 	"/>
</g>
<g>
	<polygon points="186.07,117.49 187.67,119.62 185.54,118.02 	"/>
</g>
<circle cx="185.76" cy="117.76" r="0.25"/>
<path class="st6" d="M137.23,122.33h12.38V93.67c-3.96,1.57-8.1,2.8-12.38,3.64V122.33z"/>
<path class="st7" d="M157.3,122.29h12.38V82.76c-3.82,3.09-7.97,5.8-12.38,8.06V122.29z"/>
<path class="st8" d="M191.56,110.56l-0.17-50.46h-0.21c-3.24,6.16-7.35,11.79-12.17,16.72v34.25
	C181.89,106.72,188.38,106.32,191.56,110.56z"/>
</svg>
