<svg version="1.1" id="logo" xmlns="http://www.w3.org/2000/svg" viewBox="110 30 110 110" xml:space="preserve"><style>.st0{fill:#6e6e6d}.st1{fill:#8dc2ce}.st3{fill:none;stroke:#b1deef;stroke-width:.5;stroke-miterlimit:10}</style>
<path class="st0" d="M198.61 40.04v3.7c1.46.43 2.53 1.77 2.53 3.37a3.53 3.53 0 11-7.06 0c0-1.6 1.07-2.93 2.53-3.37v-3.7h-7.73v3.7c1.46.43 2.53 1.77 2.53 3.37a3.53 3.53 0 11-7.06 0c0-1.6 1.07-2.93 2.53-3.37v-3.7h-7.73v3.7c1.46.43 2.53 1.77 2.53 3.37a3.53 3.53 0 11-7.06 0c0-1.6 1.07-2.93 2.53-3.37v-3.7h-7.73v3.7c1.46.43 2.53 1.77 2.53 3.37a3.53 3.53 0 11-7.06 0c0-1.6 1.07-2.93 2.53-3.37v-3.7h-7.73v3.7c1.46.43 2.53 1.77 2.53 3.37a3.53 3.53 0 11-7.06 0c0-1.6 1.07-2.93 2.53-3.37v-3.7h-7.73v3.7c1.46.43 2.53 1.77 2.53 3.37a3.53 3.53 0 11-7.06 0c0-1.6 1.07-2.93 2.53-3.37v-3.7h-7.73v3.7c1.46.43 2.53 1.77 2.53 3.37a3.53 3.53 0 11-7.06 0c0-1.6 1.07-2.93 2.53-3.37v-3.7h-7.73v3.7c1.46.43 2.53 1.77 2.53 3.37a3.53 3.53 0 11-7.06 0c0-1.6 1.07-2.93 2.53-3.37v-3.7h-9.17v94.23a231.91 231.91 0 0046.91 4.84c18.59.02 34.63-2.2 47.33-4.84V40.04h-14.96z"/><path class="st0" d="M198.65 40.07l.04 3.66-.05-.07c.82.24 1.55.78 2.03 1.49.47.72.67 1.61.55 2.47-.2 1.74-1.83 3.16-3.59 3.14-1.76.04-3.43-1.36-3.65-3.13-.14-.87.05-1.78.53-2.53.48-.74 1.22-1.31 2.07-1.56l-.14.19-.02-3.7.22.22-7.73.03.25-.25.01 3.7-.19-.25c.86.25 1.63.82 2.12 1.58.49.76.7 1.7.56 2.59-.21 1.82-1.92 3.29-3.76 3.26-1.83.03-3.56-1.43-3.78-3.26-.14-.9.06-1.84.56-2.61.5-.76 1.27-1.34 2.14-1.6l-.22.3-.01-3.7.32.32-7.73.02.34-.34.01 3.7-.25-.33c.88.26 1.67.84 2.17 1.61.5.77.71 1.74.58 2.65-.22 1.86-1.97 3.36-3.84 3.34-1.87.04-3.64-1.46-3.87-3.33-.14-.92.06-1.89.57-2.67s1.29-1.37 2.19-1.64l-.28.38-.01-3.7.4.4-7.73.02.42-.42.01 3.7-.31-.42c.9.27 1.7.86 2.22 1.65.52.79.73 1.77.59 2.71-.22 1.91-2.02 3.43-3.93 3.4-1.91.03-3.69-1.5-3.91-3.4a3.9 3.9 0 01.59-2.7 3.96 3.96 0 012.21-1.64l-.3.4.01-3.7.41.41-7.73-.02.39-.39-.01 3.7-.27-.36c.89.27 1.67.85 2.18 1.63.5.78.71 1.75.57 2.66-.23 1.87-1.98 3.36-3.85 3.32-1.87.03-3.61-1.47-3.83-3.32-.14-.91.07-1.87.57-2.64.5-.77 1.28-1.35 2.16-1.61l-.24.32.01-3.7.32.32-7.73-.02.3-.3-.01 3.7-.21-.28c.87.26 1.64.84 2.13 1.6.49.76.69 1.71.55 2.6-.22 1.83-1.94 3.28-3.76 3.24-1.82.02-3.52-1.43-3.74-3.25-.13-.89.07-1.82.56-2.57.49-.75 1.25-1.32 2.11-1.57l-.17.23.01-3.7.23.23-7.73-.02.21-.21-.01 3.7-.14-.19c.85.25 1.6.82 2.08 1.56.48.74.67 1.66.54 2.53-.22 1.78-1.89 3.2-3.67 3.16-1.78.02-3.43-1.4-3.64-3.17-.13-.87.07-1.77.55-2.51a3.8 3.8 0 012.05-1.54l-.11.15-.01-3.7.16.16-7.73.02.18-.18.01 3.7-.13-.18c.85.25 1.6.81 2.08 1.55s.68 1.66.55 2.54c-.21 1.79-1.89 3.22-3.68 3.2-1.8.03-3.48-1.4-3.7-3.19-.14-.88.06-1.81.55-2.56a3.8 3.8 0 012.1-1.57l-.16.22-.01-3.7.24.24-9.17.02.26-.26.14 47.12.07 47.12-.37-.45c15.46 3.2 31.24 4.81 47.02 4.81 7.89-.01 15.78-.42 23.63-1.22s15.65-2.04 23.39-3.6l-.38.47.34-94.23.14.14-15.01-.14zm-.07-.07l15.02-.1h.14v.14l.34 94.23v.39l-.38.08c-15.51 3.26-31.37 4.84-47.21 4.85a232.57 232.57 0 01-47.21-4.87l-.37-.08v-.38l.07-47.12.14-47.12v-.26h.26l9.17.02h.24v.24l-.01 3.7v.17l-.16.05c-.75.22-1.42.72-1.85 1.37-.43.66-.6 1.47-.49 2.25.19 1.59 1.67 2.86 3.27 2.84 1.59.03 3.1-1.24 3.29-2.84.12-.78-.05-1.6-.48-2.27-.43-.67-1.1-1.17-1.86-1.4l-.13-.04v-.14l.01-3.7v-.18h.18l7.73.02h.16v.16l-.01 3.7v.12l-.11.03c-.77.23-1.45.73-1.89 1.41-.43.68-.61 1.51-.49 2.3.2 1.61 1.72 2.9 3.33 2.87 1.61.02 3.12-1.27 3.3-2.87a3.24 3.24 0 00-.5-2.27 3.44 3.44 0 00-1.87-1.39l-.14-.04v-.15l-.01-3.7v-.21h.21l7.73-.02h.23v.23l.01 3.7v.18l-.17.05c-.75.23-1.41.72-1.83 1.38-.42.66-.59 1.46-.47 2.23.19 1.57 1.67 2.82 3.24 2.79 1.57.02 3.03-1.24 3.21-2.79.11-.76-.06-1.56-.48-2.21a3.34 3.34 0 00-1.82-1.35l-.21-.06v-.22l-.01-3.7v-.3h.3l7.73-.02h.32v.32l.01 3.7v.25l-.24.07c-.73.22-1.37.7-1.78 1.34-.41.64-.58 1.42-.46 2.17.19 1.52 1.62 2.74 3.15 2.71 1.52.02 2.95-1.2 3.12-2.71.11-.74-.06-1.52-.47-2.15-.41-.63-1.05-1.1-1.77-1.31l-.27-.08v-.28l-.01-3.7v-.39h.39l7.73-.02h.41v.41l.01 3.7v.31l-.3.09c-.71.21-1.34.68-1.74 1.3-.4.62-.56 1.38-.45 2.11.18 1.48 1.58 2.67 3.06 2.64 1.48.02 2.86-1.17 3.05-2.64.11-.73-.05-1.48-.45-2.1a3.18 3.18 0 00-1.73-1.3l-.31-.08v-.32l.01-3.7v-.43h.42l7.73.02h.41v.4l-.01 3.7v.3l-.28.08c-.71.21-1.35.68-1.76 1.3-.41.62-.57 1.4-.46 2.14.17 1.51 1.59 2.72 3.11 2.7 1.52.03 2.95-1.18 3.13-2.7.12-.75-.05-1.53-.46-2.16a3.263 3.263 0 00-1.78-1.33l-.25-.07v-.26l.01-3.7v-.34h.34l7.73.02h.32v.32l-.01 3.7v.23l-.22.07c-.73.22-1.39.7-1.81 1.34-.42.64-.59 1.44-.48 2.2.18 1.55 1.63 2.8 3.19 2.78 1.56.03 3.03-1.21 3.22-2.77.12-.77-.05-1.57-.47-2.22a3.375 3.375 0 00-1.82-1.37l-.19-.06v-.19l.01-3.7v-.25h.25l7.73.03h.22v.22l-.02 3.7v.15l-.14.04c-.76.22-1.44.72-1.88 1.38-.44.66-.62 1.49-.51 2.28.18 1.61 1.69 2.92 3.32 2.9 1.63.04 3.17-1.26 3.38-2.9.13-.8-.05-1.65-.49-2.34a3.492 3.492 0 00-1.92-1.45l-.05-.02v-.05l.06-3.73z"/><path fill:#8dc2ce d="M197.87 39.4v3.7c1.46.43 2.53 1.77 2.53 3.37a3.53 3.53 0 11-7.06 0c0-1.6 1.07-2.93 2.53-3.37v-3.7h-7.73v3.7c1.46.43 2.53 1.77 2.53 3.37a3.53 3.53 0 11-7.06 0c0-1.6 1.07-2.93 2.53-3.37v-3.7h-7.73v3.7c1.46.43 2.53 1.77 2.53 3.37a3.53 3.53 0 11-7.06 0c0-1.6 1.07-2.93 2.53-3.37v-3.7h-7.73v3.7c1.46.43 2.53 1.77 2.53 3.37a3.53 3.53 0 11-7.06 0c0-1.6 1.07-2.93 2.53-3.37v-3.7h-7.73v3.7c1.46.43 2.53 1.77 2.53 3.37a3.53 3.53 0 11-7.06 0c0-1.6 1.07-2.93 2.53-3.37v-3.7h-7.73v3.7c1.46.43 2.53 1.77 2.53 3.37a3.53 3.53 0 11-7.06 0c0-1.6 1.07-2.93 2.53-3.37v-3.7h-7.73v3.7c1.46.43 2.53 1.77 2.53 3.37a3.53 3.53 0 11-7.06 0c0-1.6 1.07-2.93 2.53-3.37v-3.7h-7.73v3.7c1.46.43 2.53 1.77 2.53 3.37a3.53 3.53 0 11-7.06 0c0-1.6 1.07-2.93 2.53-3.37v-3.7h-9.17v94.23a231.91 231.91 0 0046.91 4.84c18.59.02 34.63-2.2 47.33-4.84V68.07 39.4h-14.96z"/><path class="st1" d="M197.9 39.44l.04 3.66-.05-.07c.82.24 1.55.78 2.03 1.49.47.72.67 1.61.55 2.47-.2 1.74-1.83 3.16-3.59 3.14-1.76.04-3.43-1.36-3.65-3.13-.14-.87.05-1.78.53-2.53.48-.74 1.22-1.31 2.07-1.56l-.14.19-.02-3.7.22.22-7.73.03.25-.25.01 3.7-.19-.25c.86.25 1.63.82 2.12 1.58.49.76.7 1.7.56 2.59-.21 1.82-1.92 3.29-3.76 3.26-1.83.03-3.56-1.43-3.78-3.26-.14-.9.06-1.84.56-2.61.5-.76 1.27-1.34 2.14-1.6l-.22.3-.01-3.7.32.32-7.73.02.34-.34.01 3.7-.25-.33c.88.26 1.67.84 2.17 1.61.5.77.71 1.74.58 2.65-.22 1.86-1.97 3.36-3.84 3.34-1.87.04-3.64-1.46-3.87-3.33-.14-.92.06-1.89.57-2.67s1.29-1.37 2.19-1.64l-.28.38-.01-3.7.4.4-7.73.02.42-.42.01 3.7-.31-.42c.9.27 1.7.86 2.22 1.65.52.79.73 1.77.59 2.71-.22 1.91-2.02 3.43-3.93 3.4-1.91.03-3.69-1.5-3.91-3.4a3.9 3.9 0 01.59-2.7 3.96 3.96 0 012.21-1.64l-.3.4.01-3.7.41.41-7.73-.02.39-.39-.01 3.7-.27-.36c.89.27 1.67.85 2.18 1.63.5.78.71 1.75.57 2.66-.23 1.87-1.98 3.36-3.85 3.32-1.87.03-3.61-1.47-3.83-3.32-.14-.91.07-1.87.57-2.64.5-.77 1.28-1.35 2.16-1.61l-.24.32.01-3.7.32.32-7.73-.02.3-.3-.01 3.7-.21-.28c.87.26 1.64.84 2.13 1.6.49.76.69 1.71.55 2.6-.22 1.83-1.94 3.28-3.76 3.24-1.82.02-3.52-1.43-3.74-3.25-.13-.89.07-1.82.56-2.57.49-.75 1.25-1.32 2.11-1.57l-.19.21.01-3.7.23.23-7.73-.02.21-.21-.01 3.7-.14-.19c.85.25 1.6.82 2.08 1.56.48.74.67 1.66.54 2.53-.22 1.78-1.89 3.2-3.67 3.16-1.78.02-3.43-1.4-3.64-3.17-.13-.87.07-1.77.55-2.51a3.8 3.8 0 012.05-1.54l-.11.15-.01-3.7.16.16-7.73.02.18-.18.01 3.7-.13-.18c.85.25 1.6.81 2.08 1.55s.68 1.66.55 2.54c-.21 1.79-1.89 3.22-3.68 3.2-1.8.03-3.48-1.4-3.7-3.2-.14-.88.06-1.81.55-2.56a3.8 3.8 0 012.1-1.57l-.16.22-.01-3.7.24.24-9.17.02.26-.26.14 47.12.07 47.12-.37-.45c15.46 3.2 31.24 4.81 47.02 4.81 7.89-.01 15.78-.42 23.63-1.22s15.65-2.04 23.39-3.6l-.38.47.34-94.23.14.14-14.99-.11zm-.07-.07l15.02-.1h.14v.14l.34 94.23v.39l-.38.08c-15.51 3.26-31.37 4.84-47.21 4.85a232.57 232.57 0 01-47.21-4.87l-.37-.08v-.38l.07-47.12.14-47.12v-.26h.26l9.17.02h.24v.24l-.01 3.7v.17l-.16.05c-.75.22-1.42.72-1.85 1.37-.43.66-.6 1.47-.49 2.25.19 1.59 1.67 2.86 3.27 2.84 1.59.03 3.1-1.24 3.29-2.84.12-.78-.05-1.6-.48-2.27-.43-.67-1.1-1.17-1.86-1.4l-.13-.04v-.14l.01-3.7v-.18h.18l7.73.02h.16v.16l-.01 3.7v.12l-.11.03c-.77.23-1.45.73-1.89 1.41-.43.68-.61 1.51-.49 2.3.2 1.61 1.72 2.9 3.33 2.87 1.61.02 3.12-1.27 3.3-2.87a3.24 3.24 0 00-.5-2.27 3.44 3.44 0 00-1.87-1.39l-.14-.04v-.15l-.01-3.7v-.21h.21l7.73-.02h.23v.23l.01 3.7v.18l-.17.05c-.75.23-1.41.72-1.83 1.38-.42.66-.59 1.46-.47 2.23.19 1.57 1.67 2.82 3.24 2.79 1.57.02 3.03-1.24 3.21-2.79.11-.76-.06-1.56-.48-2.21a3.34 3.34 0 00-1.82-1.35l-.21-.06v-.22l-.01-3.7v-.3h.3l7.73-.02h.32v.32l.01 3.7v.25l-.24.07c-.73.22-1.37.7-1.78 1.34-.41.64-.58 1.42-.46 2.17.19 1.52 1.62 2.74 3.15 2.71 1.52.02 2.95-1.2 3.12-2.71.11-.74-.06-1.52-.47-2.15-.41-.63-1.05-1.1-1.77-1.31l-.27-.08v-.28l-.01-3.7v-.39h.39l7.73-.02h.41v.41l.01 3.7v.31l-.3.09c-.71.21-1.34.68-1.74 1.3-.4.62-.56 1.38-.45 2.11.18 1.48 1.58 2.67 3.06 2.64 1.48.02 2.86-1.17 3.05-2.64.11-.73-.05-1.48-.45-2.1a3.18 3.18 0 00-1.73-1.3l-.31-.09v-.32l.01-3.7v-.43h.42l7.73.02h.41v.4l-.01 3.7v.3l-.28.08c-.71.21-1.35.68-1.76 1.3-.41.62-.57 1.4-.46 2.14.17 1.51 1.59 2.72 3.11 2.7 1.52.03 2.95-1.18 3.13-2.7.12-.75-.05-1.53-.46-2.16a3.263 3.263 0 00-1.78-1.33l-.25-.07v-.26l.01-3.7v-.34h.34l7.73.02h.32v.32l-.01 3.7v.23l-.22.07c-.73.22-1.39.7-1.81 1.34-.42.64-.59 1.44-.48 2.2.18 1.55 1.63 2.8 3.19 2.78 1.56.03 3.03-1.21 3.22-2.77.12-.77-.05-1.57-.47-2.22a3.375 3.375 0 00-1.82-1.37l-.19-.06v-.19l.01-3.7v-.25h.25l7.73.03h.22v.22l-.02 3.7v.15l-.14.04c-.76.22-1.44.72-1.88 1.38-.44.66-.62 1.49-.51 2.28.18 1.61 1.69 2.92 3.32 2.91 1.63.04 3.17-1.26 3.38-2.9.13-.8-.05-1.65-.49-2.34a3.492 3.492 0 00-1.92-1.45l-.05-.02v-.05l.06-3.73z"/></svg>