<?xml version="1.0" encoding="utf-8"?>
<!-- Generator: Adobe Illustrator 16.0.0, SVG Export Plug-In . SVG Version: 6.00 Build 0)  -->
<!DOCTYPE svg PUBLIC "-//W3C//DTD SVG 1.1//EN" "http://www.w3.org/Graphics/SVG/1.1/DTD/svg11.dtd">
<svg xmlns="http://www.w3.org/2000/svg">
	 <symbol id="holes" width="288px" height="33px" preserveAspectRatio='xMinYMax meet'>
		<path d="M394.439 266.032c-.472-5.761-.295-11.597-3.73-16.789-5.684-8.588-13.292-13.719-23.741-14.243H354.97c.128 4.531-.522 8.825 4.386 12.242 4.267 2.969 3.362 8.742-.704 12.658-3.834 3.69-8.539 3.68-12.383-.029-4.088-3.946-4.955-9.631-.648-12.649 4.878-3.419 4.313-7.671 4.351-12.221h-19.997c.079 4.338-.661 8.426 3.932 11.875 4.444 3.336 3.477 9.843-.799 13.513-3.443 2.955-9.714 2.6-12.621-.715-3.698-4.215-3.604-10.462 1.143-13.566 4.702-3.074 2.794-7.268 3.348-11.107h-19.997c-.354 4.886.076 9.166 4.325 12.876 3.428 2.993 2.221 9.688-1.296 12.475-3.637 2.881-9.564 2.584-12.761-.64-3.183-3.212-3.519-9.58.131-12.487 4.341-3.458 3.55-7.828 3.601-12.224h-18.998c-.191 4.834-.135 9.241 4.166 13.027 3.41 3.004 2.398 9.255-.887 12.096-3.58 3.095-9.356 3.08-12.718-.032-3.612-3.351-4.677-9.904-.796-12.829 4.668-3.517 4.219-7.718 4.234-12.262h-19.996c.152 4.508-.555 8.812 4.361 12.215 4.262 2.95 3.395 8.73-.625 12.629-3.718 3.606-8.708 3.621-12.409.037-3.879-3.758-4.761-9.892-.658-12.693 4.93-3.367 4.276-7.659 4.329-12.19h-19.998c.016 4.546-.333 8.656 4.23 12.268 4.404 3.486 3.105 9.839-1.4 13.399-3.67 2.897-9.371 2.238-12.534-1.448-3.488-4.068-3.302-10.083 1.364-13.11 4.722-3.062 2.778-7.272 3.341-11.109h-19.998c-.222 4.826-.195 9.191 4.479 12.715 3.164 2.385 2.023 9.455-.988 12.239-3.349 3.095-9.296 3.179-12.77.177-3.301-2.853-4.317-9.095-.896-12.103 4.306-3.786 4.372-8.19 4.176-13.028h-18.998c-.211 4.851-.105 9.25 4.188 13.046 3.414 3.019 2.37 9.278-.945 12.108-3.515 3.001-9.431 2.887-12.779-.245-3.207-3.001-4.308-9.591-.951-12.178 4.632-3.569 4.718-7.895 4.488-12.731h-19.998c.15 4.509-.623 8.889 4.382 12.199 4.034 2.668 3.444 8.777-.028 12.383-3.422 3.553-8.959 3.879-12.555.738-4.225-3.691-5.349-9.676-1.035-13.052 4.588-3.593 4.22-7.721 4.235-12.268h-12.999c-3.204 1.276-6.897.659-9.935 2.616-8.571 5.524-15.017 12.453-15.559 23.328-.233 1.678.515 3.452-.503 5.053v2c1.724.945 3.594.474 5.389.476 91.234.025 182.469.022 273.703.021 1.331 0 2.664-.02 3.995-.012 1.673.008 2.487-.816 2.354-2.449z" style="fill:#D7D4CD"/>
	</symbol>
</svg>
