<?xml version="1.0" encoding="utf-8"?>
<!-- Generator: Adobe Illustrator 16.0.0, SVG Export Plug-In . SVG Version: 6.00 Build 0)  -->
<!DOCTYPE svg PUBLIC "-//W3C//DTD SVG 1.1//EN" "http://www.w3.org/Graphics/SVG/1.1/DTD/svg11.dtd">
<svg version="1.1" id="Layer_1" xmlns="http://www.w3.org/2000/svg" xmlns:xlink="http://www.w3.org/1999/xlink" x="0px" y="0px"
	 width="500px" height="500px" viewBox="0 0 500 500" enable-background="new 0 0 500 500" xml:space="preserve">
<g>
	
		<image overflow="visible" opacity="0.75" enable-background="new    " width="456" height="456" xlink:href="17F44FA0.png"  transform="matrix(1 0 0 1 27 33)">
	</image>
	<g>
		<path fill="#FFA382" d="M255.311,38.995C138.118,38.806,42.958,133.857,42.996,251.066
			c0.038,117.023,94.93,211.911,211.947,211.938c117.032,0.025,211.97-94.803,212.063-211.82
			C467.097,134.154,372.349,39.185,255.311,38.995z M231.083,341.473c-0.06-20.66-0.156-41.322,0.014-61.98
			c0.03-3.667-0.766-4.704-4.58-4.663c-20.325,0.217-40.654,0.108-60.982,0.099c-7.831-0.005-10.424-2.597-10.461-10.462
			c-0.043-9.33-0.091-18.661-0.054-27.991c0.026-6.475,2.988-9.442,9.476-9.455c20.661-0.037,41.323-0.118,61.982,0.083
			c3.725,0.036,4.732-0.846,4.626-4.61c-0.291-10.322-0.1-20.658-0.1-30.989c0-10.33-0.035-20.661,0.013-30.991
			c0.03-6.495,2.974-9.457,9.44-9.492c9.497-0.052,18.995-0.033,28.492-0.007c7.175,0.02,10.027,2.816,10.035,9.907
			c0.024,20.494,0.1,40.99-0.075,61.482c-0.03,3.571,0.61,4.757,4.521,4.712c20.325-0.233,40.654-0.115,60.982-0.105
			c7.876,0.004,10.571,2.642,10.576,10.374c0.006,8.83-0.016,17.661-0.063,26.492c-0.049,8.812-2.369,11.054-11.375,11.056
			c-19.995,0.004-39.989,0.101-59.983-0.09c-3.646-0.035-4.713,0.729-4.676,4.566c0.199,20.492,0.08,40.986,0.029,61.48
			c-0.02,7.258-2.745,10.006-9.886,10.033c-9.497,0.037-18.995,0.044-28.492-0.003C234.031,350.885,231.103,347.984,231.083,341.473
			z"/>
	</g>
</g>
<path fill="#FEFEFE" d="M231.005,191.502c0-10.33-0.035-20.661,0.013-30.991c0.03-6.495,2.974-9.457,9.44-9.492
	c9.497-0.052,18.995-0.033,28.492-0.007c7.175,0.02,10.026,2.816,10.036,9.907c0.023,20.494,0.099,40.99-0.076,61.482
	c-0.03,3.571,0.609,4.757,4.521,4.712c20.324-0.233,40.653-0.115,60.981-0.105c7.876,0.004,10.571,2.642,10.576,10.374
	c0.006,8.83-0.016,17.661-0.063,26.492c-0.049,8.812-2.369,11.053-11.375,11.056c-19.995,0.004-39.99,0.1-59.982-0.09
	c-3.646-0.035-4.715,0.729-4.676,4.566c0.198,20.492,0.08,40.986,0.028,61.48c-0.019,7.258-2.745,10.006-9.886,10.033
	c-9.497,0.037-18.995,0.044-28.492-0.003c-6.512-0.033-9.44-2.933-9.459-9.444c-0.06-20.662-0.156-41.322,0.014-61.981
	c0.03-3.667-0.766-4.704-4.58-4.663c-20.325,0.217-40.654,0.109-60.982,0.099c-7.831-0.005-10.424-2.597-10.461-10.462
	c-0.043-9.33-0.091-18.661-0.054-27.991c0.026-6.475,2.988-9.442,9.476-9.455c20.661-0.037,41.323-0.118,61.982,0.083
	c3.725,0.036,4.732-0.846,4.626-4.61C230.814,212.169,231.005,201.833,231.005,191.502z"/>
</svg>
