<svg id="plus" xmlns="http://www.w3.org/2000/svg" viewBox="42 40 424 424">
<path fill="#FFA382" d="M255.311 38.995c-117.193-.189-212.353 94.862-212.315 212.071.038 117.023 94.93 211.911 211.947 211.938 117.032.025 211.97-94.803 212.063-211.82.091-117.03-94.657-211.999-211.695-212.189zm-24.228 302.478c-.06-20.66-.156-41.322.014-61.98.03-3.667-.766-4.704-4.58-4.663-20.325.217-40.654.108-60.982.099-7.831-.005-10.424-2.597-10.461-10.462-.043-9.33-.091-18.661-.054-27.991.026-6.475 2.988-9.442 9.476-9.455 20.661-.037 41.323-.118 61.982.083 3.725.036 4.732-.846 4.626-4.61-.291-10.322-.1-20.658-.1-30.989 0-10.33-.035-20.661.013-30.991.03-6.495 2.974-9.457 9.44-9.492 9.497-.052 18.995-.033 28.492-.007 7.175.02 10.027 2.816 10.035 9.907.024 20.494.1 40.99-.075 61.482-.03 3.571.61 4.757 4.521 4.712 20.325-.233 40.654-.115 60.982-.105 7.876.004 10.571 2.642 10.576 10.374.006 8.83-.016 17.661-.063 26.492-.049 8.812-2.369 11.054-11.375 11.056-19.995.004-39.989.101-59.983-.09-3.646-.035-4.713.729-4.676 4.566.199 20.492.08 40.986.029 61.48-.02 7.258-2.745 10.006-9.886 10.033-9.497.037-18.995.044-28.492-.003-6.511-.034-9.439-2.935-9.459-9.446z"/>
<path fill="#FEFEFE" d="M231.005 191.502c0-10.33-.035-20.661.013-30.991.03-6.495 2.974-9.457 9.44-9.492 9.497-.052 18.995-.033 28.492-.007 7.175.02 10.026 2.816 10.036 9.907.023 20.494.099 40.99-.076 61.482-.03 3.571.609 4.757 4.521 4.712 20.324-.233 40.653-.115 60.981-.105 7.876.004 10.571 2.642 10.576 10.374.006 8.83-.016 17.661-.063 26.492-.049 8.812-2.369 11.053-11.375 11.056-19.995.004-39.99.1-59.982-.09-3.646-.035-4.715.729-4.676 4.566.198 20.492.08 40.986.028 61.48-.019 7.258-2.745 10.006-9.886 10.033-9.497.037-18.995.044-28.492-.003-6.512-.033-9.44-2.933-9.459-9.444-.06-20.662-.156-41.322.014-61.981.03-3.667-.766-4.704-4.58-4.663-20.325.217-40.654.109-60.982.099-7.831-.005-10.424-2.597-10.461-10.462-.043-9.33-.091-18.661-.054-27.991.026-6.475 2.988-9.442 9.476-9.455 20.661-.037 41.323-.118 61.982.083 3.725.036 4.732-.846 4.626-4.61-.29-10.323-.099-20.659-.099-30.99z"/></svg>